<?xml version="1.0" encoding="UTF-8" standalone="no"?>
<svg width="2647px" height="347px" viewBox="0 0 2647 347" version="1.1" xmlns="http://www.w3.org/2000/svg" xmlns:xlink="http://www.w3.org/1999/xlink" xmlns:sketch="http://www.bohemiancoding.com/sketch/ns">
    <!-- Generator: Sketch 3.3 (11970) - http://www.bohemiancoding.com/sketch -->
    <title>field2 copy</title>
    <desc>Created with Sketch.</desc>
    <defs></defs>
    <g id="Page-1" stroke="none" stroke-width="1" fill="none" fill-rule="evenodd" sketch:type="MSPage">
        <g id="field2-copy" sketch:type="MSLayerGroup" transform="translate(1.000000, 1.000000)">
            <rect id="Rectangle-1" stroke="#6BB5B4" fill="#6BB5B4" sketch:type="MSShapeGroup" x="0" y="0" width="2645" height="345"></rect>
            <g id="Group" transform="translate(186.000000, 70.000000)" fill-opacity="0.345193614" fill="#000000" sketch:type="MSShapeGroup">
                <g transform="translate(59.625000, 0.000000)" id="Shape">
                    <path d="M165.530357,158.750865 C157.580357,155.984429 144.590625,155.133218 138.912054,152.934256 C134.937054,151.373702 128.619643,149.742215 126.632143,147.259516 C124.573661,144.847751 124.573661,127.32699 124.573661,127.32699 C124.573661,127.32699 129.542411,122.716263 131.600893,117.538062 C133.659375,112.359862 135.008036,98.3148789 135.008036,98.3148789 C135.008036,98.3148789 135.433929,98.4567474 136.072768,98.4567474 C137.563393,98.4567474 140.260714,97.4636678 141.538393,90.9377163 C143.1,82.9221453 146.08125,78.7370242 145.300446,72.849481 C144.732589,68.8771626 143.029018,68.2387543 142.035268,68.2387543 C141.538393,68.2387543 141.183482,68.3806228 141.183482,68.3806228 C141.183482,68.3806228 145.229464,62.4221453 145.229464,42.1349481 C145.229464,21.2802768 129.116518,0.709342561 99.375,0.638408304 C69.5625,0.709342561 53.5205357,21.2802768 53.5205357,42.1349481 C53.5205357,62.3512111 57.5665179,68.3806228 57.5665179,68.3806228 C57.5665179,68.3806228 57.2116071,68.2387543 56.7147321,68.2387543 C55.65,68.2387543 53.9464286,68.8771626 53.4495536,72.849481 C52.66875,78.7370242 55.5790179,82.9930796 57.2116071,90.9377163 C58.4892857,97.4636678 61.1866071,98.4567474 62.6772321,98.4567474 C63.3160714,98.4567474 63.7419643,98.3148789 63.7419643,98.3148789 C63.7419643,98.3148789 65.090625,112.430796 67.1491071,117.538062 C69.2075893,122.716263 74.1763393,127.32699 74.1763393,127.32699 C74.1763393,127.32699 74.1763393,144.847751 72.1178571,147.259516 C70.059375,149.67128 63.8129464,151.373702 59.8379464,152.934256 C54.159375,155.133218 41.1696429,155.984429 33.2196429,158.750865 C25.2696429,161.517301 0.709821429,173.079585 0.709821429,205 L198.040179,205 C198.040179,173.079585 173.551339,161.517301 165.530357,158.750865 L165.530357,158.750865 Z"></path>
                </g>
                <path d="M79.5709821,149.67128 C85.959375,146.479239 92.2058036,146.479239 97.0325893,145.84083 C97.0325893,145.84083 99.7299107,141.442907 90.8571429,139.882353 C90.8571429,139.882353 78.7191964,136.83218 77.2995536,135.129758 C75.8799107,133.427336 76.7316964,123.99308 76.7316964,123.99308 C76.7316964,123.99308 93.6964286,123.425606 100.439732,117.467128 C89.4375,101.010381 95.3290179,81.7871972 93.0575893,63.8408304 C90.8571429,45.9653979 80.1388393,34.7577855 59.625,34.7577855 C59.5540179,34.7577855 59.625,34.7577855 58.9151786,34.7577855 L58.9151786,34.7577855 C39.0401786,34.7577855 28.81875,45.9653979 26.5473214,63.9117647 C24.2758929,81.8581315 30.80625,103.209343 19.5200893,117.608997 C25.8375,123.212803 41.4535714,123.49654 43.228125,123.49654 L43.3700893,123.49654 L43.4410714,123.425606 C43.4410714,123.425606 44.1508929,133.49827 42.73125,135.200692 C41.3116071,136.903114 37.1236607,138.463668 34.284375,139.102076 C28.0379464,140.449827 21.4366071,142.648789 15.9709821,144.564014 C10.5053571,146.408304 0,157.474048 0,170.951557 L56.9276786,170.951557 C58.4892857,165.276817 69.2075893,154.920415 79.5709821,149.67128 L79.5709821,149.67128 Z" id="Shape"></path>
                <path d="M261.072321,170.951557 L318,170.951557 C318,157.474048 307.494643,146.408304 302.029018,144.49308 C296.563393,142.577855 289.891071,140.378893 283.715625,139.031142 C280.805357,138.392734 276.688393,136.83218 275.26875,135.129758 C273.849107,133.427336 274.558929,123.354671 274.558929,123.354671 L274.629911,123.425606 L274.771875,123.425606 C276.546429,123.425606 292.233482,123.212803 298.550893,117.538062 C287.264732,103.138408 293.724107,81.7871972 291.452679,63.8408304 C289.18125,45.9653979 278.959821,34.7577855 259.084821,34.7577855 L259.084821,34.7577855 L258.375,34.7577855 C237.861161,34.7577855 227.071875,45.9653979 224.871429,63.9117647 C222.6,81.8581315 228.491518,101.081315 217.489286,117.538062 C224.232589,123.49654 241.197321,124.064014 241.197321,124.064014 C241.197321,124.064014 242.049107,133.49827 240.629464,135.200692 C239.209821,136.903114 227.071875,139.953287 227.071875,139.953287 C218.199107,141.513841 220.896429,145.911765 220.896429,145.911765 C225.723214,146.550173 232.040625,146.550173 238.358036,149.742215 C248.792411,154.920415 259.510714,165.276817 261.072321,170.951557 L261.072321,170.951557 Z" id="Shape"></path>
            </g>
            <path d="M2353.35742,269 L2265.31055,269 L2265.31055,246.202148 L2294.50977,204.874023 C2302.52087,193.493758 2308.02375,185.052274 2311.01855,179.549316 C2314.01336,174.046359 2316.222,168.768092 2317.64453,163.714355 C2319.06706,158.660619 2319.77832,153.438504 2319.77832,148.047852 C2319.77832,141.758758 2318.37453,137.042008 2315.56689,133.897461 C2312.75926,130.752914 2309.1094,129.180664 2304.61719,129.180664 C2300.64907,129.180664 2296.94305,130.228831 2293.49902,132.325195 C2290.055,134.42156 2285.86233,138.202447 2280.9209,143.667969 L2263.85059,125.699219 C2271.71195,116.789669 2279.01169,110.687842 2285.75,107.393555 C2292.48831,104.099267 2299.78805,102.452148 2307.64941,102.452148 C2320.90143,102.452148 2331.25208,106.345339 2338.70166,114.131836 C2346.15124,121.918333 2349.87598,132.73691 2349.87598,146.587891 C2349.87598,152.876985 2349.20216,158.829073 2347.85449,164.444336 C2346.50683,170.059598 2344.46665,175.693494 2341.73389,181.346191 C2339.00113,186.998889 2335.57587,192.876109 2331.45801,198.978027 C2327.34015,205.079946 2316.70874,219.06174 2299.56348,240.923828 L2299.56348,241.822266 L2353.35742,241.822266 L2353.35742,269 Z" id="2" opacity="0.35" fill="#000000" sketch:type="MSShapeGroup"></path>
        </g>
    </g>
</svg>