<?xml version="1.0" encoding="UTF-8" standalone="no"?>
<svg width="2646px" height="346px" viewBox="0 0 2646 346" version="1.1" xmlns="http://www.w3.org/2000/svg" xmlns:xlink="http://www.w3.org/1999/xlink" xmlns:sketch="http://www.bohemiancoding.com/sketch/ns">
    <!-- Generator: Sketch 3.3 (11970) - http://www.bohemiancoding.com/sketch -->
    <title>field10 copy</title>
    <desc>Created with Sketch.</desc>
    <defs></defs>
    <g id="Page-1" stroke="none" stroke-width="1" fill="none" fill-rule="evenodd" sketch:type="MSPage">
        <g id="field10-copy" sketch:type="MSLayerGroup" transform="translate(0.500000, 0.500000)">
            <rect id="Rectangle-1" stroke="#85ADE5" fill="#85ADE5" sketch:type="MSShapeGroup" x="0" y="0" width="2645" height="345"></rect>
            <path d="M314.940377,273.356199 L342.769214,273.356199 L342.769214,174.579584 L314.940377,202.410702 L314.940377,273.356199 L314.940377,273.356199 Z M276.678256,240.652272 L276.678256,273.356199 L304.511493,273.356199 L304.511493,212.830827 L285.290896,232.04417 L276.678256,240.652272 L276.678256,240.652272 Z M353.197218,273.338171 L381.029575,273.338171 L381.029575,196.985624 L353.197218,169.171654 L353.197218,273.338171 L353.197218,273.338171 Z M391.459339,200.231085 L391.459339,273.356199 L419.290375,273.356199 L419.290375,172.408322 L397.472127,194.228674 L391.459339,200.231085 L391.459339,200.231085 Z M429.735979,273.356199 L457.549856,273.356199 L457.549856,134.172468 L429.735979,161.987756 L429.735979,273.356199 L429.735979,273.356199 Z M418.665602,77.6193899 L437.12107,96.0777595 L437.228426,96.1859269 L387.881848,145.519051 L350.687123,108.358716 L256,202.998148 L275.682577,222.653394 L350.688443,147.689434 L387.883168,184.84977 L456.909683,115.854804 L475.275396,134.208084 L481.270585,71.6438011 L418.665602,77.6193899 L418.665602,77.6193899 Z" id="Shape" fill-opacity="0.345193614" fill="#000000" sketch:type="MSShapeGroup"></path>
            <path d="M2290.87012,262 L2260.77246,262 L2260.77246,165.642578 C2260.77246,155.160755 2261.29654,143.106839 2262.34473,129.480469 C2261.82064,130.22917 2259.89276,132.512676 2256.56104,136.331055 C2253.22931,140.149433 2246.73442,146.999951 2237.07617,156.882812 L2220.00586,138.240234 L2263.69238,97.8105469 L2290.87012,97.8105469 L2290.87012,262 Z M2413.61914,179.905273 C2413.61914,209.628729 2410.04414,231.116145 2402.89404,244.368164 C2395.74394,257.620183 2384.23283,264.246094 2368.36035,264.246094 C2352.48788,264.246094 2341.08906,257.582749 2334.16357,244.255859 C2327.23808,230.92897 2323.77539,209.478989 2323.77539,179.905273 C2323.77539,150.256688 2327.40654,128.731838 2334.66895,115.330078 C2341.93135,101.928318 2353.31145,95.2275391 2368.80957,95.2275391 C2384.60718,95.2275391 2396.0247,101.77858 2403.0625,114.880859 C2410.1003,127.983138 2413.61914,149.657726 2413.61914,179.905273 L2413.61914,179.905273 Z M2354.32227,179.905273 C2354.32227,202.890414 2355.31428,218.369589 2357.29834,226.343262 C2359.2824,234.316934 2363.04457,238.303711 2368.58496,238.303711 C2372.32847,238.303711 2375.22964,236.581723 2377.28857,233.137695 C2379.3475,229.693668 2380.82617,223.984903 2381.72461,216.01123 C2382.62305,208.037558 2383.07227,196.002359 2383.07227,179.905273 C2383.07227,157.294483 2382.0241,141.87146 2379.92773,133.635742 C2377.83137,125.400024 2374.05048,121.282227 2368.58496,121.282227 C2363.04457,121.282227 2359.2824,125.381307 2357.29834,133.57959 C2355.31428,141.777873 2354.32227,157.219613 2354.32227,179.905273 L2354.32227,179.905273 Z" id="10" stroke="#979797" opacity="0.35" fill="#000000" sketch:type="MSShapeGroup"></path>
        </g>
    </g>
</svg>