<?xml version="1.0" encoding="UTF-8" standalone="no"?>
<svg width="2646px" height="346px" viewBox="0 0 2646 346" version="1.1" xmlns="http://www.w3.org/2000/svg" xmlns:xlink="http://www.w3.org/1999/xlink" xmlns:sketch="http://www.bohemiancoding.com/sketch/ns">
    <!-- Generator: Sketch 3.3 (11970) - http://www.bohemiancoding.com/sketch -->
    <title>field11 copy</title>
    <desc>Created with Sketch.</desc>
    <defs></defs>
    <g id="Page-1" stroke="none" stroke-width="1" fill="none" fill-rule="evenodd" sketch:type="MSPage">
        <g id="field11-copy" sketch:type="MSLayerGroup" transform="translate(0.500000, 0.500000)">
            <rect id="Rectangle-1" stroke-opacity="0.95" stroke="#9881C1" fill="#9881C1" sketch:type="MSShapeGroup" x="0" y="0" width="2645" height="345"></rect>
            <g id="Group" transform="translate(244.000000, 45.000000)" fill-opacity="0.345193614" fill="#000000" sketch:type="MSShapeGroup">
                <path d="M166.868761,125.848207 C165.730427,112.653878 159.421589,100.825688 149.821184,91.64804 C134.487965,76.9357798 128.165412,61.6630525 128.165412,33.9082569 C118.880449,42.910759 115.300869,51.3644704 112.215024,59.9349458 C112.640185,72.7556297 113.805949,85.58799 116.946653,98.1284404 C118.990168,106.255213 121.431414,114.311927 124.791555,122.100083 C128.179127,129.993328 133.445635,137.82819 135.201138,146.165138 C138.492705,161.846539 130.263786,173.884904 120.23822,185.46789 C123.036053,184.685571 125.628162,183.728107 127.891115,182.560467 C144.417527,174.130108 169.049424,150.543786 166.868761,125.848207 L166.868761,125.848207 Z" id="Shape"></path>
                <path d="M112.62647,187.044204 C116.809504,182.467056 120.896534,177.843203 124.380109,172.880734 C134.899411,157.841535 130.003204,145.651376 122.994908,130.320267 C111.872153,105.963303 107.894842,81.0809008 107.04452,55.3461218 C102.216888,35.1809842 92.9730689,16.498749 80.2045297,0 C81.0822811,3.86488741 81.6857351,12.5404504 82.0697514,16.5337781 C84.2778446,41.8949124 78.4353122,59.969975 59.2619311,82.1434529 C67.5319946,104.64387 81.5348716,123.337781 87.7339905,146.585488 C91.4232892,160.422018 92.2187514,174.071726 91.0667027,187.674729 C98.2532919,188.316931 105.769038,188.106756 112.62647,187.044204 L112.62647,187.044204 Z" id="Shape"></path>
                <path d="M80.7119797,140.945788 C73.8545473,121.492911 50.0181122,77.3094245 42.5572257,58.2418682 C42.5572257,73.4211843 40.7605784,86.1251043 39.0325054,92.2318599 C34.9043311,106.885738 31.0641689,122.100083 31.0641689,134.488741 C31.0641689,156.020017 54.9280338,175.180984 69.726373,182.408674 C74.2111338,184.603837 79.9439473,186.156797 86.1567811,187.079233 C87.4459784,171.689741 86.1430662,156.30025 80.7119797,140.945788 L80.7119797,140.945788 Z" id="Shape"></path>
                <path d="M189.649151,249.956631 L187.166761,249.337781 L2.49610541,204.336947 L0,203.741451 L0.713172973,201.616347 L7.72146892,180.785655 L8.42092703,178.672227 L10.9033176,179.279399 L195.601403,224.268557 L198.070078,224.887406 L197.356905,226.989158 L190.362324,247.843203 L189.649151,249.956631 Z" id="Shape"></path>
                <path d="M187.879934,181.381151 L108.416007,200.752294 L154.689961,212.020017 L194.874515,202.211843 L187.879934,181.381151 Z" id="Shape"></path>
                <path d="M3.19556351,226.393661 L10.2038595,247.224354 L89.6677865,227.864887 L43.3938324,216.597164 L3.19556351,226.393661 Z" id="Shape"></path>
            </g>
            <path d="M2278.87012,269 L2248.77246,269 L2248.77246,172.642578 C2248.77246,162.160755 2249.29654,150.106839 2250.34473,136.480469 C2249.82064,137.22917 2247.89276,139.512676 2244.56104,143.331055 C2241.22931,147.149433 2234.73442,153.999951 2225.07617,163.882812 L2208.00586,145.240234 L2251.69238,104.810547 L2278.87012,104.810547 L2278.87012,269 Z M2385.33496,269 L2355.2373,269 L2355.2373,172.642578 C2355.2373,162.160755 2355.76139,150.106839 2356.80957,136.480469 C2356.28548,137.22917 2354.3576,139.512676 2351.02588,143.331055 C2347.69416,147.149433 2341.19927,153.999951 2331.54102,163.882812 L2314.4707,145.240234 L2358.15723,104.810547 L2385.33496,104.810547 L2385.33496,269 Z" id="11" stroke="#979797" opacity="0.35" fill="#000000" sketch:type="MSShapeGroup"></path>
        </g>
    </g>
</svg>