<?xml version="1.0" encoding="UTF-8" standalone="no"?>
<svg width="2646px" height="346px" viewBox="0 0 2646 346" version="1.1" xmlns="http://www.w3.org/2000/svg" xmlns:xlink="http://www.w3.org/1999/xlink" xmlns:sketch="http://www.bohemiancoding.com/sketch/ns">
    <!-- Generator: Sketch 3.3 (11970) - http://www.bohemiancoding.com/sketch -->
    <title>field6 copy</title>
    <desc>Created with Sketch.</desc>
    <defs></defs>
    <g id="Page-1" stroke="none" stroke-width="1" fill="none" fill-rule="evenodd" sketch:type="MSPage">
        <g id="field6-copy" sketch:type="MSLayerGroup" transform="translate(0.500000, 0.500000)">
            <rect id="Rectangle-1" stroke="#85ADE5" fill="#85ADE5" sketch:type="MSShapeGroup" x="0" y="0" width="2645" height="345"></rect>
            <path d="M293.736324,59.1333333 C275.888324,59.1333333 261.40299,73.5888 261.40299,91.4 C261.40299,103.303123 267.946954,113.598962 277.569657,119.200002 L277.569657,224.941146 C267.946954,230.534371 261.40299,240.822396 261.40299,252.733333 C261.40299,270.536719 275.888324,285 293.736324,285 C311.584324,285 326.069657,270.536719 326.069657,252.733333 C326.069657,240.822396 319.541355,230.534371 309.90299,224.941146 L309.90299,119.200002 C319.541355,113.598962 326.069657,103.303123 326.069657,91.4 C326.069657,73.5888 311.584324,59.1333333 293.736324,59.1333333 L293.736324,59.1333333 Z M293.736324,268.866667 C284.816365,268.866667 277.569657,261.650781 277.569657,252.733333 C277.569657,243.831767 284.816365,236.6 293.736324,236.6 C302.680027,236.6 309.90299,243.831767 309.90299,252.733333 C309.90299,261.650781 302.680027,268.866667 293.736324,268.866667 L293.736324,268.866667 Z M293.736324,107.533333 C284.816365,107.533333 277.569657,100.325263 277.569657,91.4 C277.569657,82.4747375 284.816365,75.2666667 293.736324,75.2666667 C302.680027,75.2666667 309.90299,82.4747375 309.90299,91.4 C309.90299,100.325263 302.680027,107.533333 293.736324,107.533333 L293.736324,107.533333 Z M439.236324,224.941146 L439.236324,123.666667 C439.236324,75.140625 390.736324,75.2666667 390.736324,75.2666667 L374.569657,75.2666667 L374.569657,43 L326.069657,91.4 L374.569657,139.8 L374.569657,107.533333 L390.736324,107.533333 C404.992798,107.533333 406.90299,123.666667 406.90299,123.666667 L406.90299,224.941146 C397.272457,230.534371 390.736324,240.806767 390.736324,252.733333 C390.736324,270.536719 405.229488,285 423.069657,285 C440.909826,285 455.40299,270.536719 455.40299,252.733333 C455.40299,240.822396 448.866858,230.534371 439.236324,224.941146 L439.236324,224.941146 Z M423.069657,268.866667 C414.149699,268.866667 406.90299,261.650781 406.90299,252.733333 C406.90299,243.831767 414.149699,236.6 423.069657,236.6 C432.00553,236.6 439.236324,243.831767 439.236324,252.733333 C439.236324,261.650781 432.00553,268.866667 423.069657,268.866667 L423.069657,268.866667 Z" id="Shape" fill-opacity="0.345193614" fill="#000000" sketch:type="MSShapeGroup"></path>
            <path d="M2287.31055,190.258789 C2287.31055,156.791825 2292.51395,132.328365 2302.9209,116.867676 C2313.32785,101.406986 2329.20009,93.6767578 2350.53809,93.6767578 C2353.90724,93.6767578 2357.27635,93.8826477 2360.64551,94.2944336 C2364.01467,94.7062195 2366.56021,95.1367165 2368.28223,95.5859375 L2368.28223,120.854492 C2363.11619,119.65657 2358.02509,119.057617 2353.00879,119.057617 C2344.47359,119.057617 2337.47333,120.929343 2332.00781,124.672852 C2326.54229,128.41636 2322.38706,134.012821 2319.54199,141.462402 C2316.69693,148.911984 2314.97494,159.374933 2314.37598,172.851562 L2315.61133,172.851562 C2318.23178,166.637339 2321.8255,161.939306 2326.39258,158.757324 C2330.95966,155.575342 2336.23793,153.984375 2342.22754,153.984375 C2353.23345,153.984375 2361.80596,158.4578 2367.94531,167.404785 C2374.08467,176.35177 2377.1543,189.135659 2377.1543,205.756836 C2377.1543,223.126714 2373.11137,236.883901 2365.02539,247.028809 C2356.93941,257.173716 2345.9711,262.246094 2332.12012,262.246094 C2317.44556,262.246094 2306.30879,256.181701 2298.70947,244.052734 C2291.11015,231.923767 2287.31055,213.992632 2287.31055,190.258789 L2287.31055,190.258789 Z M2332.34473,236.52832 C2336.83694,236.52832 2340.44937,234.057642 2343.18213,229.116211 C2345.91489,224.17478 2347.28125,216.463269 2347.28125,205.981445 C2347.28125,197.521117 2346.06463,190.839054 2343.63135,185.935059 C2341.19807,181.031063 2337.51077,178.579102 2332.56934,178.579102 C2328.152,178.579102 2324.55828,180.862607 2321.78809,185.429688 C2319.01789,189.996768 2317.63281,195.761684 2317.63281,202.724609 C2317.63281,213.655654 2318.9243,222.022269 2321.50732,227.824707 C2324.09034,233.627145 2327.70278,236.52832 2332.34473,236.52832 L2332.34473,236.52832 Z" id="6" stroke="#979797" opacity="0.35" fill="#000000" sketch:type="MSShapeGroup"></path>
        </g>
    </g>
</svg>