<?xml version="1.0" encoding="UTF-8" standalone="no"?>
<svg width="2647px" height="346px" viewBox="0 0 2647 346" version="1.1" xmlns="http://www.w3.org/2000/svg" xmlns:xlink="http://www.w3.org/1999/xlink" xmlns:sketch="http://www.bohemiancoding.com/sketch/ns">
    <!-- Generator: Sketch 3.3 (11970) - http://www.bohemiancoding.com/sketch -->
    <title>field4</title>
    <desc>Created with Sketch.</desc>
    <defs></defs>
    <g id="Page-1" stroke="none" stroke-width="1" fill="none" fill-rule="evenodd" sketch:type="MSPage">
        <g id="field4" sketch:type="MSLayerGroup" transform="translate(0.700400, 0.500000)">
            <rect id="Rectangle-1" stroke-opacity="0.499858469" stroke="#000000" fill-opacity="0.4" fill="#3F3F3F" sketch:type="MSShapeGroup" x="0" y="0" width="2645" height="345"></rect>
            <path d="M357.416619,197.238005 C355.252675,194.930285 354.209736,191.818226 354.289882,187.843964 L339.601812,187.843964 C340.30283,196.055214 342.826911,202.274641 347.196954,206.512671 C351.586773,210.768947 357.637281,213.156944 365.432788,213.716802 L365.432788,222.589038 L371.564483,222.589038 L371.564483,213.716802 C376.775019,213.376404 381.042017,212.309338 384.388376,210.585455 C387.694662,208.837072 390.36134,206.853069 392.343134,204.624063 C394.329091,202.415387 395.691574,200.146242 396.452962,197.797863 C397.211748,195.467728 397.594263,193.543672 397.594263,192.018398 C397.594263,190.293473 397.473524,188.303736 397.234126,186.075251 C396.993167,183.830607 396.210963,181.619324 394.890114,179.392403 C393.586439,177.164961 391.521376,175.036042 388.757898,172.990006 C385.971,170.921034 382.024067,169.194023 376.874941,167.829826 C375.891331,167.531131 374.970171,167.308543 374.128117,167.087519 C373.24703,166.867537 372.404456,166.686131 371.563963,166.467192 L371.563963,147.9997 C373.928272,147.9997 375.933485,148.965638 377.595736,150.931396 C379.279324,152.877866 380.139072,155.22781 380.22078,158.017195 L394.989516,158.017195 C394.78863,154.403662 394.028283,151.273357 392.704312,148.645049 C391.381901,145.972952 389.678537,143.78617 387.614515,141.998691 C385.510941,140.232584 383.106039,138.848578 380.359734,137.824257 C377.615512,136.820266 374.689139,136.158758 371.564483,135.796987 L371.564483,127.790081 L365.431747,127.790081 L365.431747,135.796987 C362.307091,135.996117 359.278715,136.599242 356.353903,137.641808 C353.448348,138.628075 350.883673,140.050656 348.639583,141.899126 C346.434525,143.746031 344.650495,146.01257 343.309349,148.722198 C341.945304,151.431827 341.265624,154.581419 341.265624,158.11676 C341.265624,161.591111 341.865679,164.498828 343.049655,166.829484 C344.209691,169.155448 345.792316,171.105047 347.778273,172.669938 C349.741852,174.233787 351.986983,175.499462 354.491808,176.400239 C356.975816,177.366698 359.520194,178.191368 362.083827,178.88728 C362.786406,179.031154 363.428095,179.171379 364.029711,179.35435 C364.60999,179.512299 365.07161,179.674418 365.431227,179.813079 L365.431227,201.61209 C362.225384,200.990721 359.53997,199.546246 357.416619,197.238005 L357.416619,197.238005 Z M371.564483,181.582313 C375.652974,182.707763 378.55957,183.953629 380.260853,185.297497 C381.963176,186.642407 382.805751,188.6874 382.805751,191.396508 C382.805751,193.063049 382.465911,194.509088 381.762811,195.71221 C381.062314,196.937746 380.200483,197.961024 379.120072,198.785173 C378.036019,199.627566 376.814051,200.269265 375.471865,200.73425 C374.129158,201.173691 372.805186,201.475514 371.564483,201.614697 L371.564483,181.582313 L371.564483,181.582313 Z M358.237856,161.971127 C356.796268,160.727345 356.054136,158.96176 356.054136,156.651434 C356.054136,155.204874 356.31331,153.942326 356.8353,152.8591 C357.357291,151.777959 358.056227,150.872491 358.959692,150.131748 C359.862116,149.408728 360.883197,148.867115 362.006283,148.522547 C363.10595,148.163383 364.250894,148.001785 365.431747,148.001785 L365.431747,165.00343 C362.084348,164.240271 359.700783,163.235759 358.237856,161.971127 L358.237856,161.971127 Z M472.259179,231.260581 L472.259179,114.361831 L400.280197,114.361831 C412.361438,127.847422 420.177241,149.005776 420.177241,172.811727 C420.177241,196.616635 412.360917,217.772905 400.280197,231.260581 L472.259179,231.260581 L472.259179,231.260581 Z M236,261.347991 L502.459677,261.347991 L502.459677,83.6520088 L236,83.6520088 L236,261.347991 L236,261.347991 Z M487.528568,246.555023 L250.928507,246.555023 L250.928507,99.0486227 L487.528568,99.0486227 L487.528568,246.555023 L487.528568,246.555023 Z M318.280354,172.811727 C318.280354,149.006298 326.0743,127.847422 338.178959,114.361831 L266.198937,114.361831 L266.198937,231.260581 L338.17948,231.260581 C326.0743,217.772905 318.280354,196.616635 318.280354,172.811727 L318.280354,172.811727 Z" id="Shape" fill-opacity="0.345193614" fill="#000000" sketch:type="MSShapeGroup"></path>
            <path d="M2382.0957,227.522461 L2365.47461,227.522461 L2365.47461,262 L2336.72461,262 L2336.72461,227.522461 L2283.15527,227.522461 L2283.15527,202.703125 L2332.79395,97.8105469 L2365.47461,97.8105469 L2365.47461,202.253906 L2382.0957,202.253906 L2382.0957,227.522461 Z M2336.72461,202.253906 L2336.72461,167.664062 L2337.28613,152.390625 L2338.07227,137.791016 L2337.17383,137.791016 C2334.55337,145.951864 2331.70835,153.326464 2328.63867,159.915039 L2308.87305,202.253906 L2336.72461,202.253906 Z" id="4" stroke="#979797" opacity="0.35" fill="#000000" sketch:type="MSShapeGroup"></path>
        </g>
    </g>
</svg>