<?xml version="1.0" encoding="UTF-8" standalone="no"?>
<svg width="2647px" height="346px" viewBox="0 0 2647 346" version="1.1" xmlns="http://www.w3.org/2000/svg" xmlns:xlink="http://www.w3.org/1999/xlink" xmlns:sketch="http://www.bohemiancoding.com/sketch/ns">
    <!-- Generator: Sketch 3.3 (11970) - http://www.bohemiancoding.com/sketch -->
    <title>field5</title>
    <desc>Created with Sketch.</desc>
    <defs></defs>
    <g id="Page-1" stroke="none" stroke-width="1" fill="none" fill-rule="evenodd" sketch:type="MSPage">
        <g id="field5" sketch:type="MSLayerGroup" transform="translate(0.700400, 0.500000)">
            <rect id="Rectangle-1" stroke-opacity="0.499858469" stroke="#000000" fill-opacity="0.4" fill="#3F3F3F" sketch:type="MSShapeGroup" x="0" y="0" width="2645" height="345"></rect>
            <path d="M397.7,55 L275.3,55 C266.858225,55 260,61.8638281 260,70.3125 L260,284.6875 C260,293.151245 266.858225,300 275.3,300 L397.7,300 C406.156836,300 413,293.151245 413,284.6875 L413,70.3125 C413,61.8638281 406.156836,55 397.7,55 L397.7,55 Z M328.85,70.3125 L344.15,70.3125 C348.363477,70.3125 351.8,73.7444141 351.8,77.96875 C351.8,82.1930859 348.363477,85.625 344.15,85.625 L328.85,85.625 C324.629113,85.625 321.2,82.1930859 321.2,77.96875 C321.2,73.7444141 324.629113,70.3125 328.85,70.3125 L328.85,70.3125 Z M344.15,284.6875 L328.85,284.6875 C324.629113,284.6875 321.2,281.248169 321.2,277.03125 C321.2,272.814331 324.629113,269.375 328.85,269.375 L344.15,269.375 C348.363477,269.375 351.8,272.814331 351.8,277.03125 C351.8,281.248169 348.363477,284.6875 344.15,284.6875 L344.15,284.6875 Z M397.7,254.0625 L275.3,254.0625 L275.3,100.9375 L397.7,100.9375 L397.7,254.0625 L397.7,254.0625 Z" id="Shape" fill-opacity="0.345193614" fill="#000000" sketch:type="MSShapeGroup"></path>
            <path d="M2313.15234,166.241211 C2325.50592,166.241211 2335.33248,170.546181 2342.63232,179.15625 C2349.93217,187.766319 2353.58203,199.558193 2353.58203,214.532227 C2353.58203,232.426196 2349.03374,246.351838 2339.93701,256.30957 C2330.84029,266.267302 2318.20614,271.246094 2302.03418,271.246094 C2287.65911,271.246094 2276.01697,268.513374 2267.10742,263.047852 L2267.10742,234.522461 C2270.9258,237.292657 2275.84844,239.744618 2281.87549,241.878418 C2287.90254,244.012218 2293.499,245.079102 2298.66504,245.079102 C2314.76212,245.079102 2322.81055,235.720471 2322.81055,217.00293 C2322.81055,199.558181 2314.98673,190.835938 2299.33887,190.835938 C2293.12464,190.835938 2286.53617,192.033842 2279.57324,194.429688 L2269.69043,187.129883 L2274.74414,104.810547 L2344.82227,104.810547 L2344.82227,132.100586 L2300.91113,132.100586 L2298.66504,167.588867 C2302.85777,166.690425 2307.68682,166.241211 2313.15234,166.241211 L2313.15234,166.241211 Z" id="5" opacity="0.35" fill="#000000" sketch:type="MSShapeGroup"></path>
        </g>
    </g>
</svg>