<?xml version="1.0" encoding="UTF-8" standalone="no"?>
<svg width="2647px" height="346px" viewBox="0 0 2647 346" version="1.1" xmlns="http://www.w3.org/2000/svg" xmlns:xlink="http://www.w3.org/1999/xlink" xmlns:sketch="http://www.bohemiancoding.com/sketch/ns">
    <!-- Generator: Sketch 3.3 (11970) - http://www.bohemiancoding.com/sketch -->
    <title>field2</title>
    <desc>Created with Sketch.</desc>
    <defs></defs>
    <g id="Page-1" stroke="none" stroke-width="1" fill="none" fill-rule="evenodd" sketch:type="MSPage">
        <g id="field2" sketch:type="MSLayerGroup" transform="translate(0.700400, 0.500000)">
            <rect id="Rectangle-1" stroke-opacity="0.499858469" stroke="#000000" fill-opacity="0.4" fill="#3F3F3F" sketch:type="MSShapeGroup" x="0" y="0" width="2645" height="345"></rect>
            <g id="Group" transform="translate(186.000000, 70.000000)" fill-opacity="0.345193614" fill="#000000" sketch:type="MSShapeGroup">
                <g transform="translate(59.625000, 0.000000)" id="Shape">
                    <path d="M165.530357,158.750865 C157.580357,155.984429 144.590625,155.133218 138.912054,152.934256 C134.937054,151.373702 128.619643,149.742215 126.632143,147.259516 C124.573661,144.847751 124.573661,127.32699 124.573661,127.32699 C124.573661,127.32699 129.542411,122.716263 131.600893,117.538062 C133.659375,112.359862 135.008036,98.3148789 135.008036,98.3148789 C135.008036,98.3148789 135.433929,98.4567474 136.072768,98.4567474 C137.563393,98.4567474 140.260714,97.4636678 141.538393,90.9377163 C143.1,82.9221453 146.08125,78.7370242 145.300446,72.849481 C144.732589,68.8771626 143.029018,68.2387543 142.035268,68.2387543 C141.538393,68.2387543 141.183482,68.3806228 141.183482,68.3806228 C141.183482,68.3806228 145.229464,62.4221453 145.229464,42.1349481 C145.229464,21.2802768 129.116518,0.709342561 99.375,0.638408304 C69.5625,0.709342561 53.5205357,21.2802768 53.5205357,42.1349481 C53.5205357,62.3512111 57.5665179,68.3806228 57.5665179,68.3806228 C57.5665179,68.3806228 57.2116071,68.2387543 56.7147321,68.2387543 C55.65,68.2387543 53.9464286,68.8771626 53.4495536,72.849481 C52.66875,78.7370242 55.5790179,82.9930796 57.2116071,90.9377163 C58.4892857,97.4636678 61.1866071,98.4567474 62.6772321,98.4567474 C63.3160714,98.4567474 63.7419643,98.3148789 63.7419643,98.3148789 C63.7419643,98.3148789 65.090625,112.430796 67.1491071,117.538062 C69.2075893,122.716263 74.1763393,127.32699 74.1763393,127.32699 C74.1763393,127.32699 74.1763393,144.847751 72.1178571,147.259516 C70.059375,149.67128 63.8129464,151.373702 59.8379464,152.934256 C54.159375,155.133218 41.1696429,155.984429 33.2196429,158.750865 C25.2696429,161.517301 0.709821429,173.079585 0.709821429,205 L198.040179,205 C198.040179,173.079585 173.551339,161.517301 165.530357,158.750865 L165.530357,158.750865 Z"></path>
                </g>
                <path d="M79.5709821,149.67128 C85.959375,146.479239 92.2058036,146.479239 97.0325893,145.84083 C97.0325893,145.84083 99.7299107,141.442907 90.8571429,139.882353 C90.8571429,139.882353 78.7191964,136.83218 77.2995536,135.129758 C75.8799107,133.427336 76.7316964,123.99308 76.7316964,123.99308 C76.7316964,123.99308 93.6964286,123.425606 100.439732,117.467128 C89.4375,101.010381 95.3290179,81.7871972 93.0575893,63.8408304 C90.8571429,45.9653979 80.1388393,34.7577855 59.625,34.7577855 C59.5540179,34.7577855 59.625,34.7577855 58.9151786,34.7577855 L58.9151786,34.7577855 C39.0401786,34.7577855 28.81875,45.9653979 26.5473214,63.9117647 C24.2758929,81.8581315 30.80625,103.209343 19.5200893,117.608997 C25.8375,123.212803 41.4535714,123.49654 43.228125,123.49654 L43.3700893,123.49654 L43.4410714,123.425606 C43.4410714,123.425606 44.1508929,133.49827 42.73125,135.200692 C41.3116071,136.903114 37.1236607,138.463668 34.284375,139.102076 C28.0379464,140.449827 21.4366071,142.648789 15.9709821,144.564014 C10.5053571,146.408304 0,157.474048 0,170.951557 L56.9276786,170.951557 C58.4892857,165.276817 69.2075893,154.920415 79.5709821,149.67128 L79.5709821,149.67128 Z" id="Shape"></path>
                <path d="M261.072321,170.951557 L318,170.951557 C318,157.474048 307.494643,146.408304 302.029018,144.49308 C296.563393,142.577855 289.891071,140.378893 283.715625,139.031142 C280.805357,138.392734 276.688393,136.83218 275.26875,135.129758 C273.849107,133.427336 274.558929,123.354671 274.558929,123.354671 L274.629911,123.425606 L274.771875,123.425606 C276.546429,123.425606 292.233482,123.212803 298.550893,117.538062 C287.264732,103.138408 293.724107,81.7871972 291.452679,63.8408304 C289.18125,45.9653979 278.959821,34.7577855 259.084821,34.7577855 L259.084821,34.7577855 L258.375,34.7577855 C237.861161,34.7577855 227.071875,45.9653979 224.871429,63.9117647 C222.6,81.8581315 228.491518,101.081315 217.489286,117.538062 C224.232589,123.49654 241.197321,124.064014 241.197321,124.064014 C241.197321,124.064014 242.049107,133.49827 240.629464,135.200692 C239.209821,136.903114 227.071875,139.953287 227.071875,139.953287 C218.199107,141.513841 220.896429,145.911765 220.896429,145.911765 C225.723214,146.550173 232.040625,146.550173 238.358036,149.742215 C248.792411,154.920415 259.510714,165.276817 261.072321,170.951557 L261.072321,170.951557 Z" id="Shape"></path>
            </g>
            <path d="M2353.06585,268 L2265.2854,268 L2265.2854,245.271134 L2294.39626,204.068066 C2302.38313,192.722237 2307.86935,184.306296 2310.8551,178.819991 C2313.84084,173.333685 2316.04279,168.071389 2317.46102,163.032946 C2318.87925,157.994502 2319.58836,152.788188 2319.58836,147.413848 C2319.58836,141.143784 2318.18881,136.441307 2315.38967,133.306276 C2312.59054,130.171244 2308.95172,128.603752 2304.4731,128.603752 C2300.51699,128.603752 2296.82219,129.648747 2293.38858,131.738768 C2289.95497,133.828789 2285.77499,137.598235 2280.84851,143.047218 L2263.82986,125.132841 C2271.66744,116.250251 2278.94508,110.166888 2285.663,106.882569 C2292.38093,103.59825 2299.65857,101.956115 2307.49615,101.956115 C2320.70807,101.956115 2331.02739,105.837525 2338.45443,113.600461 C2345.88147,121.363396 2349.59494,132.149237 2349.59494,145.958305 C2349.59494,152.228368 2348.92316,158.162446 2347.57957,163.760717 C2346.23599,169.358988 2344.20198,174.975836 2341.47749,180.611428 C2338.75299,186.247021 2335.3381,192.106457 2331.2327,198.189911 C2327.1273,204.273365 2316.52807,218.212851 2299.43468,240.008785 L2299.43468,240.904504 L2353.06585,240.904504 L2353.06585,268 Z" id="2" opacity="0.35" fill="#000000" sketch:type="MSShapeGroup"></path>
        </g>
    </g>
</svg>