<?xml version="1.0" encoding="UTF-8" standalone="no"?>
<svg width="2647px" height="346px" viewBox="0 0 2647 346" version="1.1" xmlns="http://www.w3.org/2000/svg" xmlns:xlink="http://www.w3.org/1999/xlink" xmlns:sketch="http://www.bohemiancoding.com/sketch/ns">
    <!-- Generator: Sketch 3.3 (11970) - http://www.bohemiancoding.com/sketch -->
    <title>field8</title>
    <desc>Created with Sketch.</desc>
    <defs></defs>
    <g id="Page-1" stroke="none" stroke-width="1" fill="none" fill-rule="evenodd" sketch:type="MSPage">
        <g id="field8" sketch:type="MSLayerGroup" transform="translate(0.700400, 0.500000)">
            <rect id="Rectangle-1" stroke-opacity="0.499858469" stroke="#000000" fill-opacity="0.4" fill="#3F3F3F" sketch:type="MSShapeGroup" x="0" y="0" width="2645" height="345"></rect>
            <path d="M348,52.5 C281.725937,52.5 228,106.225938 228,172.5 C228,238.774062 281.725937,292.5 348,292.5 C356.110312,292.5 364.032187,291.693125 371.69125,290.159375 C368.604062,288.682812 368.267187,277.605 371.32,271.289062 C374.718438,264.257812 385.3825,246.445312 374.835625,240.46875 C364.28875,234.492188 367.218438,231.796875 360.773125,224.882812 C354.327813,217.96875 356.96375,216.929375 356.554375,215.15625 C355.148125,209.0625 362.765313,199.921875 363.116875,198.984375 C363.468438,198.046875 363.468438,194.53125 363.35125,193.476562 C363.234063,192.421875 358.546875,189.609375 357.375,189.492188 C356.203125,189.375 355.617188,191.367188 353.976562,191.484375 C352.335938,191.601562 345.1875,187.148438 343.664062,185.976562 C342.140625,184.804688 341.4375,181.992188 339.328125,179.882812 C337.21875,177.773438 336.984375,179.414062 333.703125,178.125 C330.421875,176.835938 319.875,172.96875 311.789062,169.6875 C303.703125,166.40625 303,161.806562 302.882812,158.554688 C302.765625,155.302813 297.960938,150.585938 295.7075,147.1875 C293.454687,143.789062 293.039062,139.101562 292.21875,140.15625 C291.398438,141.210938 296.4375,153.515625 295.617188,153.867188 C294.796875,154.21875 293.039062,150.46875 290.695312,147.421875 C288.351562,144.375 293.15625,146.015625 285.65625,131.25 C278.15625,116.484375 288,108.955 288.46875,101.25 C288.9375,93.545 294.796875,104.0625 291.75,99.140625 C288.703125,94.21875 291.984375,83.90625 289.640625,80.15625 C287.296875,76.40625 273.9375,84.375 273.9375,84.375 C274.289062,80.7421875 285.65625,74.53125 293.859375,68.7890625 C302.0625,63.046875 307.072187,67.5 313.664062,69.609375 C320.255938,71.71875 320.695312,71.015625 318.46875,68.90625 C316.242188,66.796875 319.40625,65.7421875 324.5625,66.5625 C329.71875,67.3828125 331.125,73.59375 338.976562,73.0078125 C346.828125,72.421875 339.796875,74.53125 340.851562,76.5234375 C341.90625,78.515625 339.679688,78.28125 334.523438,81.796875 C329.367188,85.3125 334.640625,85.3125 343.78125,91.9921875 C352.921875,98.671875 350.109375,87.5390625 349.171875,82.6171875 C348.234375,77.6953125 355.851562,81.5625 355.851562,81.5625 C361.476562,85.3125 360.437187,81.76875 364.53875,83.0578125 C368.640312,84.346875 379.757812,93.75 379.757812,93.75 C365.8125,101.367188 374.601562,102.1875 376.945312,103.945312 C379.289062,105.703125 372.140625,109.101562 372.140625,109.101562 C369.210938,106.171875 368.742188,109.21875 366.867188,110.273438 C364.992188,111.328125 366.75,114.023438 366.75,114.023438 C357.052813,115.546875 359.25,125.742188 359.367188,128.203125 C359.484375,130.664062 353.15625,134.414062 351.515625,137.929688 C349.875,141.445312 355.734375,149.0625 352.6875,149.53125 C349.640625,150 346.59375,138.046875 330.1875,142.5 C325.24125,143.842813 314.25,149.53125 320.109375,161.132812 C325.96875,172.734375 335.695312,157.851562 338.976562,159.492188 C342.257812,161.132812 338.039062,168.515625 338.742188,168.632812 C339.445312,168.75 348,168.955 348.46875,178.945312 C348.9375,188.935625 361.476562,188.085938 364.171875,188.320312 C366.867188,188.554688 375.890625,180.9375 377.179688,180.585938 C378.46875,180.234375 383.625,175.898438 394.875,182.34375 C406.125,188.789062 411.867188,187.851562 415.734375,190.546875 C419.601562,193.242188 416.90625,198.632812 420.539062,200.390625 C424.171875,202.148438 438.703125,199.804688 442.335938,205.78125 C445.96875,211.757812 427.335938,241.757812 421.476562,245.039062 C415.617188,248.320312 412.921875,255.820312 407.0625,260.625 C401.203125,265.429688 393,271.376875 385.265625,275.976562 C378.419375,280.0475 377.1875,287.340625 374.137812,289.642812 C427.8425,277.7125 468,229.796875 468,172.5 C468,106.225938 414.274063,52.5 348,52.5 L348,52.5 Z M376.125,165.117188 C374.484375,165.585938 371.085937,168.632813 362.765625,163.710938 C354.445312,158.789063 348.703125,159.726563 348,158.90625 C348,158.90625 347.296875,156.914063 350.929687,156.5625 C358.389375,155.840313 367.804687,163.476563 369.914062,163.59375 C372.023437,163.710938 373.078125,161.484375 376.828125,162.692813 C380.578125,163.9 377.765625,164.648438 376.125,165.117188 L376.125,165.117188 Z M336.867187,64.453125 C336.05,63.85875 337.544062,63.174375 338.434687,61.9921875 C338.94875,61.3090625 338.5675,60.175 339.210937,59.53125 C340.96875,57.7734375 349.640625,55.3125 347.945,60.1171875 C346.25,64.921875 338.15625,65.390625 336.867187,64.453125 L336.867187,64.453125 Z M357.84375,79.6875 C354.914062,79.5703125 348.017812,78.8415625 349.289062,77.578125 C354.240313,72.65625 347.414062,71.25 343.195312,70.8984375 C338.976562,70.546875 337.21875,68.203125 339.328125,67.96875 C341.4375,67.734375 349.875,68.0859375 351.28125,69.2578125 C352.6875,70.4296875 360.304688,73.4765625 360.773438,75.703125 C361.242188,77.9296875 360.773438,79.8046875 357.84375,79.6875 L357.84375,79.6875 Z M383.273437,78.8671875 C380.929687,80.7421875 369.135937,72.139375 366.867187,70.1953125 C357.023437,61.7578125 351.75,64.5703125 349.682812,63.1640625 C347.615,61.7578125 348.351562,59.8828125 351.515625,57.0703125 C354.679687,54.2578125 363.585937,58.0078125 368.742187,58.59375 C373.898437,59.1796875 379.875,63.1640625 379.992187,67.9003125 C380.109375,72.63625 385.617187,76.9921875 383.273437,78.8671875 L383.273437,78.8671875 Z" id="Shape" fill-opacity="0.345193614" fill="#000000" sketch:type="MSShapeGroup"></path>
            <path d="M2332.34473,95.6767578 C2345.14752,95.6767578 2355.36715,99.3079064 2363.00391,106.570312 C2370.64066,113.832719 2374.45898,123.715432 2374.45898,136.21875 C2374.45898,143.930377 2372.68084,150.911915 2369.12451,157.163574 C2365.56818,163.415233 2359.5225,169.386039 2350.9873,175.076172 C2360.57069,181.889357 2367.38377,188.870895 2371.42676,196.020996 C2375.46975,203.171097 2377.49121,210.976195 2377.49121,219.436523 C2377.49121,232.838283 2373.37341,243.65686 2365.1377,251.892578 C2356.90198,260.128296 2345.9711,264.246094 2332.34473,264.246094 C2318.19427,264.246094 2307.11365,260.44649 2299.10254,252.847168 C2291.09143,245.247846 2287.08594,234.410552 2287.08594,220.334961 C2287.08594,210.90132 2289.08868,202.572139 2293.09424,195.347168 C2297.09979,188.122197 2303.29521,181.81448 2311.68066,176.423828 C2303.89417,170.209604 2298.33514,163.939322 2295.00342,157.612793 C2291.6717,151.286264 2290.00586,144.154988 2290.00586,136.21875 C2290.00586,123.940043 2293.9552,114.113481 2301.854,106.73877 C2309.75281,99.3640582 2319.91628,95.6767578 2332.34473,95.6767578 L2332.34473,95.6767578 Z M2316.06055,218.762695 C2316.06055,225.35127 2317.42691,230.592103 2320.15967,234.485352 C2322.89243,238.3786 2326.80434,240.325195 2331.89551,240.325195 C2337.4359,240.325195 2341.57241,238.3786 2344.30518,234.485352 C2347.03794,230.592103 2348.4043,225.35127 2348.4043,218.762695 C2348.4043,214.045875 2347.3187,209.591167 2345.14746,205.398438 C2342.97623,201.205708 2338.78356,196.376655 2332.56934,190.911133 L2330.99707,189.338867 C2326.13051,192.932635 2322.42449,197.031715 2319.87891,201.63623 C2317.33332,206.240746 2316.06055,211.94951 2316.06055,218.762695 L2316.06055,218.762695 Z M2332.12012,119.373047 C2327.85252,119.373047 2324.63315,120.92658 2322.46191,124.033691 C2320.29068,127.140803 2319.20508,131.576794 2319.20508,137.341797 C2319.20508,142.283228 2320.10351,146.588198 2321.90039,150.256836 C2323.69727,153.925474 2327.17869,157.818664 2332.34473,161.936523 C2337.28616,158.118145 2340.67398,154.299824 2342.5083,150.481445 C2344.34262,146.663067 2345.25977,142.283228 2345.25977,137.341797 C2345.25977,125.36257 2340.87993,119.373047 2332.12012,119.373047 L2332.12012,119.373047 Z" id="8" stroke="#979797" opacity="0.35" fill="#000000" sketch:type="MSShapeGroup"></path>
        </g>
    </g>
</svg>