<?xml version="1.0" encoding="UTF-8" standalone="no"?>
<svg width="2647px" height="346px" viewBox="0 0 2647 346" version="1.1" xmlns="http://www.w3.org/2000/svg" xmlns:xlink="http://www.w3.org/1999/xlink" xmlns:sketch="http://www.bohemiancoding.com/sketch/ns">
    <!-- Generator: Sketch 3.3 (11970) - http://www.bohemiancoding.com/sketch -->
    <title>field7</title>
    <desc>Created with Sketch.</desc>
    <defs></defs>
    <g id="Page-1" stroke="none" stroke-width="1" fill="none" fill-rule="evenodd" sketch:type="MSPage">
        <g id="field7" sketch:type="MSLayerGroup" transform="translate(0.700400, 0.500000)">
            <rect id="Rectangle-1" stroke-opacity="0.499858469" stroke="#000000" fill-opacity="0.4" fill="#3F3F3F" sketch:type="MSShapeGroup" x="0" y="0" width="2645" height="345"></rect>
            <path d="M352.838513,264.5 C459.393796,180.767406 455.383336,150.996174 455.383336,127.775883 C455.383336,104.555592 436.163625,76.5 404.107453,76.5 C372.051281,76.5 352.838513,110.686236 352.838513,110.686236 C352.838513,110.686236 333.626012,76.5 301.569573,76.5 C269.513134,76.5 250.29369,104.555592 250.29369,127.775883 C250.29369,150.996174 246.28323,180.767406 352.838513,264.5 L352.838513,264.5 Z" id="Shape" fill-opacity="0.345193614" fill="#000000" sketch:type="MSShapeGroup"></path>
            <path d="M2299.21484,260 L2345.25977,123.100586 L2287.98438,123.100586 L2287.98438,96.0351562 L2376.03125,96.0351562 L2376.03125,116.699219 L2330.77246,260 L2299.21484,260 Z" id="7" stroke="#979797" opacity="0.35" fill="#000000" sketch:type="MSShapeGroup"></path>
        </g>
    </g>
</svg>