<?xml version="1.0" encoding="UTF-8" standalone="no"?>
<svg width="6411px" height="347px" viewBox="0 0 6411 347" version="1.1" xmlns="http://www.w3.org/2000/svg" xmlns:xlink="http://www.w3.org/1999/xlink" xmlns:sketch="http://www.bohemiancoding.com/sketch/ns">
    <!-- Generator: Sketch 3.3 (11970) - http://www.bohemiancoding.com/sketch -->
    <title>field12-pdf</title>
    <desc>Created with Sketch.</desc>
    <defs></defs>
    <g id="Page-1" stroke="none" stroke-width="1" fill="none" fill-rule="evenodd" sketch:type="MSPage">
        <g id="field12-pdf" sketch:type="MSLayerGroup" transform="translate(1.000000, 1.000000)">
            <rect id="Rectangle-1" stroke-opacity="0.499858469" stroke="#000000" fill-opacity="0.4" fill="#3F3F3F" sketch:type="MSShapeGroup" x="0" y="0" width="6409" height="345"></rect>
            <text id="12" stroke="#979797" opacity="0.35" sketch:type="MSTextLayer" font-family="Open Sans Condensed" font-size="230" font-style="condensed" font-weight="bold" fill="#000000">
                <tspan x="6020" y="246">12</tspan>
            </text>
            <path d="M347.681133,86.1925962 C358.108187,85.8859182 366.388494,77.605611 366.695172,67.1785574 C367.00185,55.8314698 357.801509,46.6311285 346.454421,46.9378065 C336.027367,47.2444846 327.74706,55.5247918 327.440382,65.9518453 C327.133704,77.2989329 336.334045,86.4992742 347.681133,86.1925962 L347.681133,86.1925962 Z M489.979746,203.956965 L484.459541,203.956965 L445.511429,128.514166 C451.031634,127.90081 456.551839,125.754064 461.458688,123.607318 C468.818961,120.233859 470.352351,110.420162 464.832146,104.593279 L464.525468,104.286601 C461.15201,100.913142 455.938483,99.6864302 451.338312,101.833176 C447.044819,103.673245 440.911259,105.819991 435.084376,105.819991 C417.910405,105.819991 410.243454,86.1925962 347.067777,86.1925962 C283.8921,86.1925962 276.225149,105.819991 259.051178,105.819991 C252.917617,105.819991 247.090734,103.979923 242.797242,101.833176 C238.197071,99.9931082 232.983544,100.913142 229.610086,104.286601 L229.303408,104.593279 C223.783203,110.420162 225.316593,119.927181 232.676866,123.607318 C237.583715,126.060742 243.10392,127.90081 248.624125,128.514166 L209.676013,203.956965 L204.155808,203.956965 C201.702384,203.956965 199.862316,206.103712 200.168994,208.557136 C203.542452,228.184531 228.383374,243.211755 258.7445,243.211755 C289.105627,243.211755 313.946548,228.184531 317.320007,208.557136 C317.626685,206.103712 315.786616,203.956965 313.333192,203.956965 L307.812987,203.956965 L268.864876,128.820844 C294.319153,126.674098 307.812987,113.79362 327.440382,113.79362 L327.440382,262.83915 C316.706651,262.83915 307.812987,271.732813 307.812987,282.466545 L286.038846,282.466545 C277.451861,282.466545 268.558198,291.360208 268.558198,302.09394 L425.577356,302.09394 C425.577356,291.360208 416.683693,282.466545 403.803215,282.466545 L386.322567,282.466545 C386.322567,271.732813 377.428903,262.83915 366.695172,262.83915 L366.695172,113.79362 C386.322567,113.79362 399.816401,126.674098 425.270678,128.820844 L386.322567,203.956965 L380.802362,203.956965 C378.348938,203.956965 376.508869,206.103712 376.815547,208.557136 C380.189006,228.184531 405.029927,243.211755 435.391054,243.211755 C465.75218,243.211755 490.593102,228.184531 493.96656,208.557136 C494.273238,206.103712 492.43317,203.956965 489.979746,203.956965 L489.979746,203.956965 Z M288.185592,203.956965 L229.303408,203.956965 L258.7445,148.754917 L288.185592,203.956965 L288.185592,203.956965 Z M405.949962,203.956965 L435.391054,148.754917 L464.832146,203.956965 L405.949962,203.956965 L405.949962,203.956965 Z" id="Shape" fill-opacity="0.345193614" fill="#000000" sketch:type="MSShapeGroup"></path>
        </g>
    </g>
</svg>