<?xml version="1.0" encoding="UTF-8" standalone="no"?>
<svg width="607px" height="894px" viewBox="0 0 607 894" version="1.1" xmlns="http://www.w3.org/2000/svg" xmlns:xlink="http://www.w3.org/1999/xlink" xmlns:sketch="http://www.bohemiancoding.com/sketch/ns">
    <!-- Generator: Sketch 3.3 (11970) - http://www.bohemiancoding.com/sketch -->
    <title>lamp</title>
    <desc>Created with Sketch.</desc>
    <defs></defs>
    <g id="Page-1" stroke="none" stroke-width="1" fill="none" fill-rule="evenodd" sketch:type="MSPage">
        <g id="1467649260_advantage_creation" sketch:type="MSLayerGroup" transform="translate(-207.000000, -99.000000)">
            <g id="lamp" transform="translate(510.050253, 510.050253) rotate(-45.000000) translate(-510.050253, -510.050253) translate(150.050253, 149.050253)" sketch:type="MSShapeGroup">
                <g id="creation" transform="translate(0.000000, 1.000000)">
                    <path d="M221.901639,535.832258 C216,529.929032 210.098361,524.025806 204.196721,516.941935 C198.295082,511.03871 191.213115,505.135484 185.311475,499.232258 C145.180328,460.270968 107.409836,424.851613 127.47541,367 C141.639344,329.219355 149.901639,289.077419 154.622951,250.116129 C165.245902,174.554839 203.016393,107.258065 263.213115,60.0322581 C311.606557,22.2516129 372.983607,1 436.721311,1 C500.459016,1 564.196721,22.2516129 612.590164,62.3935484 C676.327869,114.341935 714.098361,187.541935 718.819672,269.006452 C723.540984,349.290323 692.852459,428.393548 636.196721,485.064516 C590.163934,531.109677 532.327869,559.445161 467.409836,566.529032 C430.819672,570.070968 393.04918,579.516129 352.918033,593.683871 C343.47541,597.225806 332.852459,598.406452 323.409836,598.406452 C283.278689,598.406452 253.770492,567.709677 221.901639,535.832258 Z" id="Shape" stroke="#FFFFFF" stroke-width="40" fill-opacity="0.0952785326" fill="#4D4D4D"></path>
                    <path d="M6.25277607e-13,616.116129 L6.25277607e-13,653.896774 C6.25277607e-13,671.606452 7.08196721,688.135484 18.8852459,701.122581 C31.8688525,714.109677 48.3934426,720.012903 66.0983607,720.012903 L66.0983607,720.012903 L100.327869,720.012903 C66.0983607,688.135484 31.8688525,652.716129 6.25277607e-13,616.116129 L6.25277607e-13,616.116129 Z" id="Shape" fill-opacity="0.651353034" fill="#FFFFFF"></path>
                    <path d="M167.606557,703.483871 L264.393443,606.670968 L106.229508,464.993548 L17.704918,553.541935 C7.08196721,564.167742 1.18032787,579.516129 0,594.864516 L0,616.116129 C31.8688525,652.716129 64.9180328,688.135484 101.508197,720.012903 L126.295082,720.012903 C141.639344,720.012903 156.983607,714.109677 167.606557,703.483871 L167.606557,703.483871 Z" id="Shape" fill="#E8E8E8"></path>
                    <g id="Group" transform="translate(9.000000, 80.096774)" fill="#FFFFFF">
                        <path d="M20.5081967,479.348387 C15.7868852,474.625806 8.70491803,474.625806 3.98360656,478.167742 C1.62295082,480.529032 0.442622951,484.070968 0.442622951,487.612903 C52.3770492,538.380645 111.393443,582.064516 176.311475,617.483871 C119.655738,578.522581 66.5409836,531.296774 20.5081967,479.348387 L20.5081967,479.348387 Z" id="Shape"></path>
                        <path d="M268.915558,-0.859687485 C263.50147,-8.17307731 255.380338,-8.17307731 249.96625,-2.68803494 C247.259206,0.968659972 245.905684,6.45370234 245.905684,11.9387447 C305.460652,90.5576854 373.136752,158.206541 447.580461,213.056965 C382.611405,152.721499 321.702916,79.5876006 268.915558,-0.859687485 L268.915558,-0.859687485 Z" id="Shape-Copy-2" transform="translate(346.743073, 103.229560) rotate(91.000000) translate(-346.743073, -103.229560) "></path>
                        <path d="M302.791506,111.403201 C298.070194,106.68062 290.988227,106.68062 286.266916,110.222555 C283.90626,112.583846 282.725932,116.125781 282.725932,119.667717 C334.660358,170.435459 393.676752,214.11933 458.594784,249.538684 C401.939047,210.577394 348.824293,163.351588 302.791506,111.403201 L302.791506,111.403201 Z" id="Shape-Copy-3" transform="translate(370.660358, 178.618251) rotate(95.000000) translate(-370.660358, -178.618251) "></path>
                        <path d="M20.5081967,479.348387 C15.7868852,474.625806 8.70491803,474.625806 3.98360656,478.167742 C1.62295082,480.529032 0.442622951,484.070968 0.442622951,487.612903 C52.3770492,538.380645 111.393443,582.064516 176.311475,617.483871 C119.655738,578.522581 66.5409836,531.296774 20.5081967,479.348387 L20.5081967,479.348387 Z" id="Shape-Copy"></path>
                    </g>
                    <g id="Group" transform="translate(32.696721, 514.096774)" fill="#FFFFFF">
                        <path d="M0.180327869,13.4322581 C0.180327869,15.7935484 1.36065574,18.1548387 2.54098361,20.516129 C54.4754098,80.7290323 114.672131,135.03871 179.590164,181.083871 C181.95082,182.264516 184.311475,183.445161 186.672131,183.445161 C190.213115,183.445161 193.754098,182.264516 196.114754,178.722581 C199.655738,174 198.47541,168.096774 194.934426,163.374194 C121.754098,123.232258 56.8360656,72.4645161 0.180327869,13.4322581 L0.180327869,13.4322581 Z" id="Shape" fill-opacity="0.651353034"></path>
                        <path d="M194.934426,162.193548 L193.754098,161.012903 C130.016393,116.148387 72.1803279,64.2 20.2459016,5.16774194 C15.5245902,0.44516129 8.44262295,-0.735483871 3.72131148,3.98709677 C1.36065574,6.3483871 0.180327869,9.89032258 0.180327869,13.4322581 C56.8360656,72.4645161 121.754098,123.232258 194.934426,162.193548 L194.934426,162.193548 Z" id="Shape"></path>
                    </g>
                    <g id="Group" transform="translate(50.163934, 464.993548)" fill="#FFFFFF">
                        <path d="M0.262295082,10.8064516 C0.262295082,14.3483871 0.262295082,17.8903226 2.62295082,20.2516129 C55.7377049,80.4645161 115.934426,134.774194 180.852459,179.63871 C183.213115,180.819355 185.57377,182 187.934426,182 C191.47541,182 195.016393,179.63871 197.377049,177.277419 C199.737705,173.735484 199.737705,167.832258 197.377049,164.290323 C124.196721,124.148387 58.0983607,72.2 0.262295082,10.8064516 L0.262295082,10.8064516 Z" id="Shape"></path>
                        <path d="M198.557377,164.290323 C197.377049,163.109677 196.196721,161.929032 195.016393,160.748387 C131.278689,117.064516 72.2622951,63.9354839 21.5081967,4.90322581 C16.7868852,0.180645161 9.70491803,-1 4.98360656,3.72258065 C2.62295082,6.08387097 1.44262295,8.44516129 1.44262295,10.8064516 C58.0983607,72.2 124.196721,124.148387 198.557377,164.290323 L198.557377,164.290323 Z" id="Shape"></path>
                    </g>
                    <path d="M272.655738,617.296774 C265.57377,617.296774 258.491803,614.935484 252.590164,610.212903 C199.47541,572.432258 149.901639,528.748387 105.04918,480.341935 C92.0655738,466.174194 93.2459016,444.922581 106.229508,431.935484 L120.393443,417.767742 L304.52459,601.948387 L298.622951,607.851613 C291.540984,613.754839 282.098361,617.296774 272.655738,617.296774 L272.655738,617.296774 Z" id="Shape" fill-opacity="0.651353034" fill="#FFFFFF"></path>
                    <path d="M306.885246,614.935484 C303.344262,614.935484 300.983607,613.754839 298.622951,611.393548 L109.770492,422.490323 C105.04918,417.767742 105.04918,410.683871 109.770492,405.96129 C114.491803,401.23871 121.57377,401.23871 126.295082,405.96129 L315.147541,594.864516 C319.868852,599.587097 319.868852,606.670968 315.147541,611.393548 C312.786885,613.754839 310.42623,614.935484 306.885246,614.935484 L306.885246,614.935484 Z" id="Shape" fill="#FFFFFF"></path>
                </g>
            </g>
        </g>
    </g>
</svg>