<?xml version="1.0" encoding="UTF-8" standalone="no"?>
<svg width="4177px" height="1254px" viewBox="0 0 4177 1254" version="1.1" xmlns="http://www.w3.org/2000/svg" xmlns:xlink="http://www.w3.org/1999/xlink" xmlns:sketch="http://www.bohemiancoding.com/sketch/ns">
    <!-- Generator: Sketch 3.3 (11970) - http://www.bohemiancoding.com/sketch -->
    <title>OEC Logo</title>
    <desc>Created with Sketch.</desc>
    <defs>
        <path id="path-1" d="M0,8.43686713 L4176.26801,8.43686713 L4176.26801,1261.47049 L0,1261.47049"></path>
        <path id="path-3" d="M0,0.436867133 L4176.26801,0.436867133 L4176.26801,1253.47049 L0,1253.47049 L0,0.436867133 Z"></path>
    </defs>
    <g id="Page-1" stroke="none" stroke-width="1" fill="none" fill-rule="evenodd" sketch:type="MSPage">
        <g id="OEC-Logo" sketch:type="MSLayerGroup" transform="translate(0.000000, -8.000000)">
            <path d="M0,790.294406 C0,807.397594 13.870538,821.261944 30.9901899,821.261944 L338.455253,821.261944 C355.557247,821.261944 369.436614,807.397594 369.436614,790.294406 L369.436614,46.3939441 C369.436614,29.2907552 355.557247,15.4175804 338.455253,15.4175804 L30.9901899,15.4175804 C13.870538,15.4175804 0,29.2907552 0,46.3939441 L0,790.294406" id="Fill-1" fill="#735FA7" sketch:type="MSShapeGroup"></path>
            <path d="M436.776266,353.713007 C436.776266,370.825021 450.646804,384.689371 467.748797,384.689371 L775.213861,384.689371 C792.333513,384.689371 806.204051,370.825021 806.204051,353.713007 L806.204051,46.3939441 C806.204051,29.2907552 792.333513,15.4175804 775.213861,15.4175804 L467.748797,15.4175804 C450.646804,15.4175804 436.776266,29.2907552 436.776266,46.3939441 L436.776266,353.713007" id="Fill-2" fill="#6589B9" sketch:type="MSShapeGroup"></path>
            <path d="M0,1226.86698 C0,1243.98782 13.870538,1257.84334 30.9901899,1257.84334 L447.59193,1257.84334 C464.711582,1257.84334 478.573291,1243.98782 478.573291,1226.86698 L478.573291,919.556741 C478.573291,902.435902 464.711582,888.580378 447.59193,888.580378 L30.9901899,888.580378 C13.870538,888.580378 0,902.435902 0,919.556741 L0,1226.86698" id="Fill-3" fill="#65ADA8" sketch:type="MSShapeGroup"></path>
            <path d="M546.001234,1226.86698 C546.001234,1243.98782 559.880601,1257.84334 576.982595,1257.84334 L993.601994,1257.84334 C1010.71282,1257.84334 1024.58335,1243.98782 1024.58335,1226.86698 L1024.58335,919.556741 C1024.58335,902.435902 1010.71282,888.580378 993.601994,888.580378 L576.982595,888.580378 C559.880601,888.580378 546.001234,902.435902 546.001234,919.556741 L546.001234,1226.86698" id="Fill-4" fill="#6589B9" sketch:type="MSShapeGroup"></path>
            <path d="M1092.0113,1226.86698 C1092.0113,1243.98782 1105.88184,1257.84334 1123.00149,1257.84334 L1539.60323,1257.84334 C1556.72288,1257.84334 1570.59342,1243.98782 1570.59342,1226.86698 L1570.59342,919.556741 C1570.59342,902.435902 1556.72288,888.580378 1539.60323,888.580378 L1123.00149,888.580378 C1105.88184,888.580378 1092.0113,902.435902 1092.0113,919.556741 L1092.0113,1226.86698" id="Fill-5" fill="#80BF63" sketch:type="MSShapeGroup"></path>
            <path d="M1638.01253,1226.86698 C1638.01253,1243.98782 1651.8919,1257.84334 1669.00272,1257.84334 L2085.61329,1257.84334 C2102.73294,1257.84334 2116.59465,1243.98782 2116.59465,1226.86698 L2116.59465,919.556741 C2116.59465,902.435902 2102.73294,888.580378 2085.61329,888.580378 L1669.00272,888.580378 C1651.8919,888.580378 1638.01253,902.435902 1638.01253,919.556741 L1638.01253,1226.86698" id="Fill-6" fill="#17AE90" sketch:type="MSShapeGroup"></path>
            <path d="M436.776266,790.294406 C436.776266,807.397594 450.646804,821.261944 467.748797,821.261944 L775.213861,821.261944 C792.333513,821.261944 806.204051,807.397594 806.204051,790.294406 L806.204051,482.966517 C806.204051,465.880979 792.333513,451.998979 775.213861,451.998979 L467.748797,451.998979 C450.646804,451.998979 436.776266,465.880979 436.776266,482.966517 L436.776266,790.294406" id="Fill-7" fill="#80BF63" sketch:type="MSShapeGroup"></path>
            <path d="M873.543703,353.713007 C873.543703,370.825021 887.414241,384.689371 904.533892,384.689371 L1211.99013,384.689371 C1229.10095,384.689371 1242.98032,370.825021 1242.98032,353.713007 L1242.98032,46.3939441 C1242.98032,29.2907552 1229.10095,15.4175804 1211.99013,15.4175804 L904.533892,15.4175804 C887.414241,15.4175804 873.543703,29.2907552 873.543703,46.3939441 L873.543703,353.713007" id="Fill-8" fill="#17AE90" sketch:type="MSShapeGroup"></path>
            <path d="M873.543703,790.294406 C873.543703,807.397594 887.414241,821.261944 904.533892,821.261944 L1211.99013,821.261944 C1229.10095,821.261944 1242.98032,807.397594 1242.98032,790.294406 L1242.98032,482.966517 C1242.98032,465.880979 1229.10095,451.998979 1211.99013,451.998979 L904.533892,451.998979 C887.414241,451.998979 873.543703,465.880979 873.543703,482.966517 L873.543703,790.294406" id="Fill-9" fill="#735FA7" sketch:type="MSShapeGroup"></path>
            <path d="M1310.31997,353.713007 C1310.31997,370.825021 1324.18168,384.689371 1341.30133,384.689371 L1648.77522,384.689371 C1665.87722,384.689371 1679.74775,370.825021 1679.74775,353.713007 L1679.74775,46.3939441 C1679.74775,29.2907552 1665.87722,15.4175804 1648.77522,15.4175804 L1341.30133,15.4175804 C1324.18168,15.4175804 1310.31997,29.2907552 1310.31997,46.3939441 L1310.31997,353.713007" id="Fill-10" fill="#80BF63" sketch:type="MSShapeGroup"></path>
            <path d="M1310.31997,790.294406 C1310.31997,807.397594 1324.18168,821.261944 1341.30133,821.261944 L1648.77522,821.261944 C1665.87722,821.261944 1679.74775,807.397594 1679.74775,790.294406 L1679.74775,482.966517 C1679.74775,465.880979 1665.87722,451.998979 1648.77522,451.998979 L1341.30133,451.998979 C1324.18168,451.998979 1310.31997,465.880979 1310.31997,482.966517 L1310.31997,790.294406" id="Fill-11" fill="#65ADA8" sketch:type="MSShapeGroup"></path>
            <path d="M1747.08741,790.294406 C1747.08741,807.397594 1760.95794,821.261944 1778.06877,821.261944 L2085.53383,821.261944 C2102.65348,821.261944 2116.52402,807.397594 2116.52402,790.294406 L2116.52402,46.3939441 C2116.52402,29.2907552 2102.65348,15.4175804 2085.53383,15.4175804 L1778.06877,15.4175804 C1760.95794,15.4175804 1747.08741,29.2907552 1747.08741,46.3939441 L1747.08741,790.294406" id="Fill-12" fill="#735FA7" sketch:type="MSShapeGroup"></path>
            <path d="M2534.76797,721.802224 C2534.76797,729.074168 2539.50038,731.924699 2546.46655,731.924699 L2659.73525,731.924699 C2667.96399,731.924699 2672.38737,737.616937 2672.38737,745.506643 C2672.38737,753.096294 2667.96399,759.45042 2659.73525,759.45042 L2537.28427,759.45042 C2514.81418,759.45042 2505.04035,749.628 2505.04035,725.597049 L2505.04035,547.231441 C2505.04035,522.882783 2514.81418,513.095664 2537.28427,513.095664 L2656.89228,513.095664 C2665.09453,513.095664 2669.51791,518.770252 2669.51791,526.677608 C2669.51791,534.57614 2665.09453,540.603734 2656.89228,540.603734 L2545.51301,540.603734 C2537.93763,540.603734 2534.76797,544.072028 2534.76797,551.661678 L2534.76797,617.126825 L2642.64209,617.126825 C2650.55297,617.126825 2654.9587,622.810238 2654.9587,630.72642 C2654.9587,637.998364 2650.2263,644.008308 2642.64209,644.008308 L2534.76797,644.008308 L2534.76797,721.802224" id="Fill-13" fill="#1A1918" sketch:type="MSShapeGroup"></path>
            <path d="M2777.33022,540.912615 C2769.40168,540.912615 2764.99595,534.57614 2764.99595,527.313021 C2764.99595,519.723371 2769.40168,513.095664 2776.98589,513.095664 L2951.34323,513.095664 C2958.93627,513.095664 2963.34199,519.723371 2963.34199,527.313021 C2963.34199,534.57614 2958.59193,540.912615 2951.34323,540.912615 L2879.50073,540.912615 L2879.50073,748.357175 C2879.50073,756.908769 2872.87006,761.339007 2864.30582,761.339007 C2855.79456,761.339007 2849.12858,756.908769 2849.12858,748.357175 L2849.12858,540.912615 L2777.33022,540.912615" id="Fill-14" fill="#1A1918" sketch:type="MSShapeGroup"></path>
            <path d="M3226.26418,524.162434 C3226.26418,515.284308 3232.93016,511.189427 3242.11244,511.189427 C3250.33234,511.189427 3256.65399,515.284308 3256.65399,524.162434 L3256.65399,748.357175 C3256.65399,756.908769 3250.33234,761.339007 3242.11244,761.339007 C3232.93016,761.339007 3226.26418,756.908769 3226.26418,748.357175 L3226.26418,643.699427 L3091.47892,643.699427 L3091.47892,748.357175 C3091.47892,756.908769 3084.86592,761.339007 3076.32816,761.339007 C3067.46373,761.339007 3061.13326,756.908769 3061.13326,748.357175 L3061.13326,524.162434 C3061.13326,515.284308 3067.46373,511.189427 3076.32816,511.189427 C3084.86592,511.189427 3091.47892,515.284308 3091.47892,524.162434 L3091.47892,616.173706 L3226.26418,616.173706 L3226.26418,524.162434" id="Fill-15" fill="#1A1918" sketch:type="MSShapeGroup"></path>
            <path d="M3397.7344,524.162434 C3397.7344,515.284308 3404.05604,511.189427 3412.60263,511.189427 C3421.44057,511.189427 3428.09772,515.284308 3428.09772,524.162434 L3428.09772,748.357175 C3428.09772,756.908769 3421.44057,761.339007 3412.60263,761.339007 C3404.05604,761.339007 3397.7344,756.908769 3397.7344,748.357175 L3397.7344,524.162434" id="Fill-16" fill="#1A1918" sketch:type="MSShapeGroup"></path>
            <path d="M3751.77304,565.261273 C3752.69127,567.476392 3753.01794,569.69151 3753.01794,571.588923 C3753.01794,578.225455 3747.97652,582.646867 3743.19997,584.244224 C3740.70133,585.188517 3738.14089,585.515049 3735.63342,585.515049 C3730.22117,585.515049 3725.17975,583.291105 3722.33677,577.281161 C3712.83665,554.503385 3697.0237,535.85579 3660.95677,535.85579 C3613.49146,535.85579 3582.18342,574.121748 3582.18342,636.409832 C3582.18342,697.453566 3613.49146,736.663818 3660.95677,736.663818 C3698.91313,736.663818 3716.95101,713.886042 3725.17975,688.584266 C3727.72253,681.638853 3733.39965,678.788322 3739.42111,678.788322 C3741.31054,678.788322 3743.52665,679.114853 3745.74275,679.732615 C3751.11085,681.021091 3756.81446,685.733734 3756.81446,692.396741 C3756.81446,694.285329 3756.50544,695.865035 3755.86975,697.762448 C3744.78038,729.074168 3718.18709,764.489594 3661.89266,764.489594 C3593.87316,764.489594 3550.53104,714.839161 3550.53104,636.109776 C3550.53104,559.242503 3593.87316,508.33007 3659.65889,508.33007 C3715.37943,508.33007 3740.37465,537.417846 3751.77304,565.261273" id="Fill-17" fill="#1A1918" sketch:type="MSShapeGroup"></path>
            <g id="Group-21">
                <mask id="mask-2" sketch:name="Clip 19" fill="white">
                    <use xlink:href="#path-1"></use>
                </mask>
                <g id="Clip-19"></g>
                <path d="M3964.74892,619.977357 C4014.12133,630.399888 4041.00598,647.16772 4041.00598,693.005678 C4041.00598,733.804462 4009.67146,764.489594 3953.05035,764.489594 C3880.92532,764.489594 3866.05709,727.16793 3858.45522,701.557273 C3858.12854,699.977566 3857.8107,698.706741 3857.8107,697.453566 C3857.8107,690.490503 3863.18763,685.733734 3869.85361,684.154028 C3871.75187,683.845147 3873.31462,683.545091 3875.20405,683.545091 C3881.22551,683.545091 3887.21165,686.386797 3889.15405,693.005678 C3894.82234,714.221399 3905.27601,737.925818 3951.46111,737.925818 C3987.5457,737.925818 4010.01579,720.540224 4010.01579,693.33221 C4010.01579,667.412671 3995.7656,656.028196 3958.41845,648.438545 L3933.11421,643.055189 C3885.64006,633.25042 3864.15,615.220587 3864.15,573.804042 C3864.15,540.603734 3888.82737,508.33007 3948.30028,508.33007 C4005.26573,508.33007 4024.85753,538.697497 4031.8237,561.466448 C4032.44174,563.046154 4032.76842,564.62586 4032.76842,566.205566 C4032.76842,572.859748 4027.39149,577.590042 4021.10516,578.852042 C4019.48943,579.178573 4017.6,579.487455 4015.67525,579.487455 C4010.01579,579.487455 4004.29453,576.963455 4001.79589,570.318098 C3996.72797,552.305916 3983.40484,534.57614 3948.30028,534.57614 C3911.60649,534.57614 3894.82234,552.914853 3894.82234,573.804042 C3894.82234,596.564168 3905.91171,608.26635 3941.33411,615.220587 L3964.74892,619.977357" id="Fill-18" fill="#1A1918" sketch:type="MSShapeGroup" mask="url(#mask-2)"></path>
                <path d="M2695.79335,1062.7805 C2696.75573,1064.97797 2697.07358,1067.21074 2697.07358,1069.09933 C2697.07358,1075.74469 2691.99684,1080.15727 2687.24677,1081.75463 C2684.72165,1082.69892 2682.20535,1083.02545 2679.64491,1083.02545 C2674.29446,1083.02545 2669.20889,1080.79269 2666.37475,1074.79157 C2656.89228,1052.04027 2641.06168,1033.35737 2604.97709,1033.35737 C2557.5206,1033.35737 2526.21256,1071.63215 2526.21256,1133.90259 C2526.21256,1194.95515 2557.5206,1234.17422 2604.97709,1234.17422 C2642.95111,1234.17422 2660.98899,1211.4141 2669.20889,1186.09467 C2671.74285,1179.13161 2677.4288,1176.30755 2683.45908,1176.30755 C2685.33968,1176.30755 2687.57345,1176.61643 2689.78956,1177.24302 C2695.18415,1178.52267 2700.86127,1183.25297 2700.86127,1189.91597 C2700.86127,1191.79573 2700.53459,1193.37544 2699.89889,1195.2552 C2688.82718,1226.5934 2662.27804,1262 2605.95712,1262 C2537.93763,1262 2494.57785,1212.34957 2494.57785,1133.60253 C2494.57785,1056.75291 2537.93763,1005.85813 2603.74101,1005.85813 C2659.39092,1005.85813 2684.39497,1034.9459 2695.79335,1062.7805" id="Fill-20" fill="#1A1918" sketch:type="MSShapeGroup" mask="url(#mask-2)"></path>
            </g>
            <path d="M2943.18513,1158.27772 L2908.04525,1066.23997 C2904.56658,1057.07944 2901.09674,1046.96579 2898.24494,1036.2079 C2895.40196,1046.96579 2892.24114,1057.07944 2888.42696,1066.5665 L2852.69554,1158.27772 L2943.18513,1158.27772 L2943.18513,1158.27772 Z M2818.82706,1249.99776 C2816.61095,1256.29894 2811.87854,1258.83176 2806.50161,1258.83176 C2804.26785,1258.83176 2802.37842,1258.53171 2800.17114,1257.88747 C2793.85832,1256.29894 2789.09943,1250.93323 2789.09943,1244.90564 C2789.09943,1243.0347 2789.39079,1241.44617 2790.04415,1239.53993 L2876.08386,1023.5526 C2880.1894,1012.82119 2888.10028,1008.70866 2897.94475,1008.70866 C2908.04525,1008.70866 2916.29165,1012.82119 2920.41484,1023.5526 L3006.4369,1240.17534 C3007.39044,1242.06393 3007.71712,1243.66129 3007.71712,1245.54987 C3007.71712,1251.87752 3002.65804,1256.61664 2996.31873,1258.18752 C2994.43813,1258.83176 2992.53104,1259.15829 2990.65044,1259.15829 C2984.94684,1259.15829 2979.87892,1256.29894 2977.67165,1250.30664 L2952.65877,1184.83267 L2843.17775,1184.83267 L2818.82706,1249.99776 L2818.82706,1249.99776 Z" id="Fill-22" fill="#1A1918" sketch:type="MSShapeGroup"></path>
            <path d="M3282.63807,1021.68166 C3282.63807,1012.82119 3288.97737,1008.70866 3297.83297,1008.70866 C3306.67092,1008.70866 3312.67472,1012.82119 3312.67472,1021.68166 L3312.67472,1238.93099 C3312.67472,1251.24211 3306.35307,1258.83176 3293.73627,1258.83176 C3280.12177,1258.83176 3275.05386,1253.45723 3267.12532,1240.81958 L3183.29288,1105.12369 C3170.64076,1084.91404 3154.83665,1053.92885 3147.56146,1038.11414 C3149.4244,1058.34144 3151.96718,1102.30846 3151.96718,1148.79066 L3151.96718,1245.87641 C3151.96718,1254.428 3145.62788,1258.83176 3137.09896,1258.83176 C3128.23453,1258.83176 3121.93937,1254.428 3121.93937,1245.87641 L3121.93937,1027.65631 C3121.93937,1015.95413 3129.54123,1008.70866 3141.86668,1008.70866 C3156.09038,1008.70866 3161.45848,1014.37442 3167.48877,1023.87031 L3247.18918,1153.22972 C3261.75722,1176.94297 3279.47725,1210.76986 3287.70598,1228.48199 C3285.79889,1208.88127 3282.63807,1163.00801 3282.63807,1117.49659 L3282.63807,1021.68166" id="Fill-23" fill="#1A1918" sketch:type="MSShapeGroup"></path>
            <path d="M3603.93835,1017.86919 C3606.15446,1011.53271 3611.22237,1008.70866 3617.53519,1008.70866 C3619.41579,1008.70866 3621.34054,1009.00871 3623.22997,1009.31759 C3629.89595,1011.22383 3634.93737,1015.95413 3634.93737,1022.2906 C3634.93737,1023.87031 3634.6107,1025.44119 3633.99266,1027.0209 L3552.34101,1244.62323 C3548.2443,1255.36347 3540.66009,1258.83176 3531.17763,1258.83176 C3521.35965,1258.83176 3513.78427,1255.36347 3509.66108,1244.2967 L3428.33611,1027.65631 C3427.71807,1026.09425 3427.38256,1024.17919 3427.38256,1022.61713 C3427.38256,1016.28066 3432.45047,1010.91495 3439.11646,1009.31759 C3440.99706,1008.70866 3442.88649,1008.38213 3444.76709,1008.38213 C3450.82386,1008.38213 3456.19196,1011.22383 3458.42573,1017.56031 L3520.0706,1191.16915 C3524.21146,1202.8625 3527.69896,1217.43287 3531.17763,1230.06169 C3534.66513,1217.08869 3538.45282,1202.8625 3542.55835,1190.83379 L3603.93835,1017.86919" id="Fill-24" fill="#1A1918" sketch:type="MSShapeGroup"></path>
            <g id="Group-28" transform="translate(0.000000, 8.000000)">
                <mask id="mask-4" sketch:name="Clip 26" fill="white">
                    <use xlink:href="#path-3"></use>
                </mask>
                <g id="Clip-26"></g>
                <path d="M3846.41231,1150.27772 L3811.29892,1058.23997 C3807.81142,1049.07944 3804.31509,1038.96579 3801.46329,1028.2079 C3798.62915,1038.96579 3795.47715,1049.07944 3791.65415,1058.5665 L3755.88741,1150.27772 L3846.41231,1150.27772 L3846.41231,1150.27772 Z M3722.0719,1241.99776 C3719.86462,1248.29894 3715.10573,1250.83176 3709.73763,1250.83176 C3707.52152,1250.83176 3705.61443,1250.53171 3703.42481,1249.88747 C3697.06785,1248.29894 3692.30896,1242.93323 3692.30896,1236.90564 C3692.30896,1235.0347 3692.63563,1233.44617 3693.28016,1231.53993 L3779.31987,1015.5526 C3783.44307,1004.82119 3791.35396,1000.70866 3801.14544,1000.70866 C3811.29892,1000.70866 3819.50117,1004.82119 3823.61554,1015.5526 L3909.68174,1232.17534 C3910.64411,1234.06393 3910.93547,1235.66129 3910.93547,1237.54987 C3910.93547,1243.87752 3905.91171,1248.61664 3899.57241,1250.18752 C3897.64766,1250.83176 3895.75823,1251.15829 3893.87763,1251.15829 C3888.15636,1251.15829 3883.09728,1248.29894 3880.89883,1242.30664 L3855.87712,1176.83267 L3746.41377,1176.83267 L3722.0719,1241.99776 L3722.0719,1241.99776 Z" id="Fill-25" fill="#1A1918" sketch:type="MSShapeGroup" mask="url(#mask-4)"></path>
                <path d="M4100.01978,1109.49659 C4149.37453,1119.92794 4176.26801,1136.68695 4176.26801,1182.52491 C4176.26801,1223.32369 4144.95997,1254 4088.29472,1254 C4016.19617,1254 4001.31028,1216.66069 3993.72608,1191.06768 C3993.3994,1189.48797 3993.09038,1188.22597 3993.09038,1186.95515 C3993.09038,1179.98326 3998.45848,1175.25297 4005.1068,1173.67326 C4006.98741,1173.36438 4008.5943,1173.03785 4010.49256,1173.03785 C4016.50519,1173.03785 4022.52665,1175.88838 4024.41608,1182.52491 C4030.11085,1203.71415 4040.5557,1227.44505 4086.75845,1227.44505 C4122.79889,1227.44505 4145.26899,1210.0418 4145.26899,1182.83379 C4145.26899,1156.9319 4131.00114,1145.5386 4093.70696,1137.95778 L4068.39389,1132.56559 C4020.92858,1122.76965 3999.4032,1104.73982 3999.4032,1063.32327 C3999.4032,1030.11414 4024.10706,997.858126 4083.56231,997.858126 C4140.51009,997.858126 4160.11956,1028.2079 4167.12104,1050.96803 C4167.73908,1052.54773 4168.0481,1054.14509 4168.0481,1055.74245 C4168.0481,1062.36133 4162.67117,1067.09162 4156.32304,1068.37127 C4154.7338,1068.6978 4152.87085,1069.02434 4150.97259,1069.02434 C4145.26899,1069.02434 4139.55655,1066.48269 4137.04025,1059.81968 C4131.99883,1041.8075 4118.69335,1024.1042 4083.56231,1024.1042 C4046.85968,1024.1042 4030.11085,1042.44291 4030.11085,1063.32327 C4030.11085,1086.07457 4041.18256,1097.79441 4076.59614,1104.73982 L4100.01978,1109.49659" id="Fill-27" fill="#1A1918" sketch:type="MSShapeGroup" mask="url(#mask-4)"></path>
            </g>
            <path d="M2524.80873,137.169692 C2524.80873,198.531133 2555.95785,238.26207 2604.63275,238.26207 C2654.25237,238.26207 2683.80342,199.15772 2683.80342,135.263455 C2683.80342,75.1816643 2652.96332,35.7772587 2604.63275,35.7772587 C2555.32215,35.7772587 2524.80873,75.8347273 2524.80873,137.169692 L2524.80873,137.169692 Z M2715.29687,137.169692 C2715.29687,215.378392 2672.69639,265.911343 2604.63275,265.911343 C2536.55146,265.911343 2493.32411,215.696098 2493.32411,136.860811 C2493.32411,58.9874685 2536.25127,8.43686713 2604.63275,8.43686713 C2672.69639,8.43686713 2715.29687,58.6521119 2715.29687,137.169692 L2715.29687,137.169692 Z" id="Fill-29" fill="#1A1918" sketch:type="MSShapeGroup"></path>
            <path d="M3002.65804,11.2962238 C3011.55778,11.2962238 3017.61456,15.4264056 3017.61456,24.3398322 L3017.61456,242.709958 C3017.61456,255.118154 3011.24877,262.743105 2998.51718,262.743105 C2984.84089,262.743105 2979.7818,257.333273 2971.8356,244.616196 L2887.54405,108.249594 C2874.83013,87.8987413 2858.91123,56.7546993 2851.61839,40.8605594 C2853.51665,61.2114126 2856.05943,105.390238 2856.05943,152.119538 L2856.05943,249.717147 C2856.05943,258.304042 2849.7113,262.743105 2841.10291,262.743105 C2832.22965,262.743105 2825.85503,258.304042 2825.85503,249.717147 L2825.85503,30.3674266 C2825.85503,18.6034685 2833.48339,11.2962238 2845.87946,11.2962238 C2860.20028,11.2962238 2865.61253,17.0237622 2871.63399,26.554951 L2951.76703,156.576252 C2966.39687,180.404224 2984.23168,214.425273 2992.49573,232.216825 C2990.57098,212.519035 2987.41016,166.416322 2987.41016,120.648965 L2987.41016,24.3398322 C2987.41016,15.4264056 2993.75829,11.2962238 3002.65804,11.2962238 Z" id="Fill-30" fill="#1A1918" sketch:type="MSShapeGroup"></path>
            <path d="M3152.83244,24.9575944 C3152.83244,15.4264056 3159.49842,11.2962238 3168.09797,11.2962238 C3176.99772,11.2962238 3183.35468,15.4264056 3183.35468,24.6487133 L3183.35468,221.10593 C3183.35468,228.40435 3187.47788,232.216825 3194.80604,232.216825 L3307.38608,232.216825 C3315.6413,232.216825 3320.41785,238.26207 3320.41785,246.204727 C3320.41785,253.829678 3315.6413,260.836867 3307.38608,260.836867 L3185.27943,260.836867 C3162.6769,260.836867 3152.83244,250.979147 3152.83244,226.815818 L3152.83244,24.9575944" id="Fill-31" fill="#1A1918" sketch:type="MSShapeGroup"></path>
            <path d="M3422.88854,24.3398322 C3422.88854,15.4264056 3429.22785,11.2962238 3437.81858,11.2962238 C3446.71832,11.2962238 3453.40196,15.4264056 3453.40196,24.3398322 L3453.40196,249.717147 C3453.40196,258.304042 3446.71832,262.743105 3437.81858,262.743105 C3429.22785,262.743105 3422.88854,258.304042 3422.88854,249.717147 L3422.88854,24.3398322" id="Fill-32" fill="#1A1918" sketch:type="MSShapeGroup"></path>
            <path d="M3750.16614,24.3398322 C3750.16614,15.4264056 3756.5231,11.2962238 3765.43168,11.2962238 C3774.33142,11.2962238 3780.37937,15.4264056 3780.37937,24.3398322 L3780.37937,242.709958 C3780.37937,255.118154 3774.02241,262.743105 3761.29965,262.743105 C3747.6057,262.743105 3742.54661,257.333273 3734.59158,244.616196 L3650.30003,108.249594 C3637.59494,87.8987413 3621.66722,56.7546993 3614.37437,40.8605594 C3616.28146,61.2114126 3618.82424,105.390238 3618.82424,152.119538 L3618.82424,249.717147 C3618.82424,258.304042 3612.46728,262.743105 3603.86772,262.743105 C3594.98563,262.743105 3588.61101,258.304042 3588.61101,249.717147 L3588.61101,30.3674266 C3588.61101,18.6034685 3596.23937,11.2962238 3608.64427,11.2962238 C3622.96509,11.2962238 3628.36851,17.0237622 3634.3988,26.554951 L3714.53184,156.576252 C3729.17934,180.404224 3746.99649,214.425273 3755.25171,232.216825 C3753.34462,212.519035 3750.16614,166.416322 3750.16614,120.648965 L3750.16614,24.3398322" id="Fill-33" fill="#1A1918" sketch:type="MSShapeGroup"></path>
            <path d="M3928.26703,223.020993 C3928.26703,230.310587 3933.04358,233.178769 3940.02741,233.178769 L4053.87,233.178769 C4062.13405,233.178769 4066.60158,238.888657 4066.60158,246.84014 C4066.60158,254.473916 4062.13405,260.836867 4053.87,260.836867 L3930.80098,260.836867 C3908.21611,260.836867 3898.36282,250.979147 3898.36282,226.815818 L3898.36282,47.5323916 C3898.36282,23.0513566 3908.21611,13.2024615 3930.80098,13.2024615 L4051.00054,13.2024615 C4059.28225,13.2024615 4063.73212,18.93 4063.73212,26.8726573 C4063.73212,34.8241399 4059.28225,40.8605594 4051.00054,40.8605594 L3939.08269,40.8605594 C3931.43668,40.8605594 3928.26703,44.3465035 3928.26703,51.9891049 L3928.26703,117.789608 L4036.69737,117.789608 C4044.65241,117.789608 4049.09345,123.499497 4049.09345,131.450979 C4049.09345,138.775874 4044.33456,144.803469 4036.69737,144.803469 L3928.26703,144.803469 L3928.26703,223.020993" id="Fill-34" fill="#1A1918" sketch:type="MSShapeGroup"></path>
        </g>
    </g>
</svg>