<?xml version="1.0" encoding="UTF-8" standalone="no"?>
<svg width="980px" height="714px" viewBox="0 0 980 714" version="1.1" xmlns="http://www.w3.org/2000/svg" xmlns:xlink="http://www.w3.org/1999/xlink" xmlns:sketch="http://www.bohemiancoding.com/sketch/ns">
    <!-- Generator: Sketch 3.3 (11970) - http://www.bohemiancoding.com/sketch -->
    <title>DownloadPDF</title>
    <desc>Created with Sketch.</desc>
    <defs>
        <radialGradient cx="48.9062673%" cy="34.3094985%" fx="48.9062673%" fy="34.3094985%" r="50%" id="radialGradient-1">
            <stop stop-color="#FFFFFF" stop-opacity="0.991" offset="0%"></stop>
            <stop stop-color="#FFFFFF" stop-opacity="0.616" offset="51.4%"></stop>
            <stop stop-color="#8D8D8D" stop-opacity="0" offset="100%"></stop>
        </radialGradient>
        <radialGradient cx="13.6048385%" cy="52.0220032%" fx="13.6048385%" fy="52.0220032%" r="9.93382684%" id="radialGradient-2">
            <stop stop-color="#FFFFFF" offset="0%"></stop>
            <stop stop-color="#FFFFFF" stop-opacity="0" offset="100%"></stop>
        </radialGradient>
        <radialGradient cx="83.1456267%" cy="47.8543948%" fx="83.1456267%" fy="47.8543948%" r="5.89832963%" id="radialGradient-3">
            <stop stop-color="#FFFFFF" offset="0%"></stop>
            <stop stop-color="#FFFFFF" stop-opacity="0" offset="100%"></stop>
        </radialGradient>
    </defs>
    <g id="Page-1" stroke="none" stroke-width="1" fill="none" fill-rule="evenodd" sketch:type="MSPage">
        <g id="DownloadPDF" sketch:type="MSLayerGroup" transform="translate(-3.299600, 0.000000)">
            <g id="Group" transform="translate(36.240316, 15.889108)" fill-opacity="0.95" fill="#757575" sketch:type="MSShapeGroup">
                <path d="M459.855457,16.5168859 L821.007173,201.209707 C825.249813,203.379391 827.8252,206.149294 826.75946,207.396459 C825.693721,208.643623 821.390429,207.895774 817.147788,205.726089 L455.996073,21.0332685 C453.958685,19.9913494 452.20805,18.7541887 451.129287,17.5939476 C450.050524,16.4337066 449.731999,15.445426 450.243786,14.8465164 C451.309525,13.5993518 455.612817,14.3472017 459.855457,16.5168859" id="Shape"></path>
                <path d="M7.16700774,330.327598 L478.500585,4.82080268 C484.0376,0.996894761 490.063251,-0.720034458 491.959252,0.985933938 C493.855253,2.69190233 490.903627,7.17475282 485.366612,10.9986607 L14.0330349,336.505456 C8.49601931,340.329364 2.47036878,342.046293 0.57436773,340.340325 C-1.32163332,338.634356 1.62999215,334.151506 7.16700774,330.327598" id="Shape"></path>
            </g>
            <g id="Group" transform="translate(404.833708, 378.547295)"></g>
            <g id="Group" transform="translate(493.530988, 461.078619) rotate(-9.598338) translate(-493.530988, -461.078619) translate(24.030988, 279.078619)" fill-opacity="0.95" fill="#9881C1" sketch:type="MSShapeGroup">
                <path d="M907.022582,0.394491538 C924.378395,0.394491538 938.448061,9.64862563 938.448061,21.0641785 L938.448061,342.560712 C938.448061,353.976265 924.378395,363.230399 907.022582,363.230399 L31.6459959,363.230399 C14.2901834,363.230399 0.220517474,353.976265 0.220517474,342.560712 L0.220517474,21.0641785 C0.220517474,9.64862563 14.2901834,0.394491538 31.6459959,0.394491538 L907.022582,0.394491538 Z" id="Shape"></path>
            </g>
            <g id="Group" transform="translate(429.209934, 0.168656)" sketch:type="MSShapeGroup">
                <path d="M56.4811948,72.3619296 C30.9605451,80.6179227 6.34898057,79.3605129 1.50972692,69.5534263 C-3.32952674,59.7463396 13.4360574,45.1033203 38.9567071,36.8473272 C64.4773568,28.5913342 89.0889213,29.8487439 93.928175,39.6558305 C98.7674286,49.4629172 82.0018445,64.1059365 56.4811948,72.3619296 L56.4811948,72.3619296 L56.4811948,72.3619296 Z" id="Shape" opacity="0.62" fill="url(#radialGradient-1)"></path>
                <path d="M105.352959,34.7025442 C105.352959,47.5593647 92.5123314,57.981877 76.6726141,57.981877 C60.8328968,57.981877 47.9922688,47.5593647 47.9922688,34.7025442 C47.9922688,21.8457236 60.8328968,11.4232113 76.6726141,11.4232113 C92.5123314,11.4232113 105.352959,21.8457236 105.352959,34.7025442 L105.352959,34.7025442 Z" id="Shape" fill="#666666"></path>
                <path d="M73.6432122,49.9847885 C62.9733088,55.1356011 50.1062592,53.5836334 44.9038526,46.5183716 C39.701446,39.4531099 44.1337279,29.550025 54.8036313,24.3992125 C65.4735348,19.2483999 78.3405843,20.8003677 83.5429909,27.8656294 C88.7453975,34.9308911 84.3131156,44.833976 73.6432122,49.9847885 L73.6432122,49.9847885 L73.6432122,49.9847885 Z" id="Shape" opacity="0.303" fill="url(#radialGradient-1)"></path>
                <path d="M98.0764632,29.9665138 C98.0764632,37.8983852 90.1545925,44.3284375 80.3824698,44.3284375 C70.6103471,44.3284375 62.6884765,37.8983852 62.6884765,29.9665138 C62.6884765,22.0346423 70.6103471,15.6045901 80.3824698,15.6045901 C90.1545925,15.6045901 98.0764632,22.0346423 98.0764632,29.9665138 L98.0764632,29.9665138 Z" id="Shape" fill="#4D4D4D"></path>
                <path d="M60.9961762,49.6271343 C54.890474,45.6685738 53.2469635,43.4258546 54.1763128,38.8736087 C56.8239714,44.7709553 60.7275201,49.2905179 60.9961762,49.6271343 L60.9961762,49.6271343 Z" id="Shape" opacity="0.74" fill="url(#radialGradient-2)"></path>
                <path d="M106.168416,16.2532808 C105.359582,24.4363783 96.3334621,30.5817283 86.0080135,29.9793042 C75.6825649,29.3768801 67.9678248,22.2548077 68.7766593,14.0717102 C69.5854938,5.88861273 78.6116136,-0.256737245 88.9370623,0.345686854 C99.2625109,0.948110953 106.977251,8.07018337 106.168416,16.2532808 L106.168416,16.2532808 L106.168416,16.2532808 Z" id="Shape" fill="#666666"></path>
                <path d="M91.7810117,2.08691409 C100.833247,6.7269356 103.428859,9.36502989 102.747354,14.7421453 C98.2572272,7.79627762 92.2014418,2.48278562 91.7810117,2.08691409 L91.7810117,2.08691409 Z" id="Shape" fill="url(#radialGradient-3)"></path>
            </g>
            <path d="M149.728928,453.48115 C149.728928,467.578602 145.815191,478.355981 137.9876,485.813611 C130.16001,493.271241 118.886111,497 104.165568,497 L80.2740109,497 L80.2740109,411.597907 L106.677394,411.597907 C120.268584,411.597907 130.841514,415.258517 138.396502,422.579845 C145.95149,429.901174 149.728928,440.201506 149.728928,453.48115 L149.728928,453.48115 Z M135.008458,453.948466 C135.008458,433.503266 125.448036,423.28082 106.326907,423.28082 L94.2350917,423.28082 L94.2350917,485.258673 L104.165568,485.258673 C124.727597,485.258673 135.008458,474.822041 135.008458,453.948466 L135.008458,453.948466 Z M223.915424,464.579917 C223.915424,475.133534 221.20891,483.369905 215.7958,489.289278 C210.38269,495.20865 202.847286,498.168291 193.189364,498.168291 C187.153162,498.168291 181.818018,496.805298 177.183773,494.079272 C172.549528,491.353245 168.986275,487.439508 166.493908,482.337944 C164.00154,477.23638 162.755376,471.317097 162.755376,464.579917 C162.755376,454.104186 165.442419,445.926229 170.816585,440.0458 C176.190752,434.165371 183.765098,431.225201 193.539851,431.225201 C202.886228,431.225201 210.285332,434.233521 215.737385,440.250251 C221.189439,446.266981 223.915424,454.376789 223.915424,464.579917 L223.915424,464.579917 Z M176.8917,464.579917 C176.8917,479.495177 182.402086,486.952695 193.423022,486.952695 C204.327128,486.952695 209.7791,479.495177 209.7791,464.579917 C209.7791,449.82043 204.288186,442.440797 193.306193,442.440797 C187.542594,442.440797 183.365994,444.348987 180.776269,448.165424 C178.186543,451.981862 176.8917,457.453304 176.8917,464.579917 L176.8917,464.579917 Z M290.274369,497 L281.921087,466.858085 C280.908562,463.664739 279.078258,456.246164 276.430118,444.602136 L275.904386,444.602136 C273.645679,455.11681 271.854317,462.574328 270.530247,466.974914 L261.943306,497 L246.755519,497 L228.647004,432.393492 L242.666499,432.393492 L250.902953,464.229429 C252.772228,472.095963 254.096279,478.833042 254.875143,484.440869 L255.225631,484.440869 C255.615063,481.598012 256.208939,478.336565 257.007275,474.656429 C257.805611,470.976293 258.496843,468.221101 259.080992,466.390768 L268.894639,432.393492 L283.965596,432.393492 L293.48717,466.390768 C294.071319,468.298987 294.801494,471.219686 295.677716,475.152953 C296.553939,479.08622 297.069929,482.143218 297.225702,484.32404 L297.693019,484.32404 C298.277167,479.534021 299.64016,472.835885 301.782038,464.229429 L310.135321,432.393492 L323.921158,432.393492 L305.695814,497 L290.274369,497 Z M391.857296,497 L378.071459,497 L378.071459,457.278096 C378.071459,452.293362 377.068686,448.574339 375.063109,446.120915 C373.057532,443.667491 369.873971,442.440797 365.512328,442.440797 C359.709786,442.440797 355.465036,444.154274 352.777953,447.581279 C350.09087,451.008284 348.747348,456.752325 348.747348,464.813575 L348.747348,497 L335.019925,497 L335.019925,432.393492 L345.768205,432.393492 L347.695886,440.863604 L348.396861,440.863604 C350.344023,437.787088 353.108951,435.411586 356.691729,433.737027 C360.274507,432.062468 364.246657,431.225201 368.6083,431.225201 C384.107708,431.225201 391.857296,439.111088 391.857296,454.883099 L391.857296,497 Z M424.686282,497 L410.958859,497 L410.958859,406.106938 L424.686282,406.106938 L424.686282,497 Z M501.618263,464.579917 C501.618263,475.133534 498.911748,483.369905 493.498638,489.289278 C488.085528,495.20865 480.550125,498.168291 470.892202,498.168291 C464.856,498.168291 459.520857,496.805298 454.886611,494.079272 C450.252366,491.353245 446.689113,487.439508 444.196746,482.337944 C441.704379,477.23638 440.458214,471.317097 440.458214,464.579917 C440.458214,454.104186 443.145257,445.926229 448.519424,440.0458 C453.893591,434.165371 461.467937,431.225201 471.242689,431.225201 C480.589066,431.225201 487.98817,434.233521 493.440224,440.250251 C498.892277,446.266981 501.618263,454.376789 501.618263,464.579917 L501.618263,464.579917 Z M454.594538,464.579917 C454.594538,479.495177 460.104924,486.952695 471.12586,486.952695 C482.029967,486.952695 487.481938,479.495177 487.481938,464.579917 C487.481938,449.82043 481.991024,442.440797 471.009031,442.440797 C465.245432,442.440797 461.068832,444.348987 458.479107,448.165424 C455.889382,451.981862 454.594538,457.453304 454.594538,464.579917 L454.594538,464.579917 Z M557.813073,497 L555.067589,488.004157 L554.600272,488.004157 C551.484813,491.937424 548.34993,494.614732 545.195528,496.03616 C542.041125,497.457588 537.991089,498.168291 533.045298,498.168291 C526.69755,498.168291 521.742098,496.454815 518.178792,493.02781 C514.615485,489.600805 512.833859,484.752444 512.833859,478.482583 C512.833859,471.82329 515.306717,466.799687 520.252509,463.411626 C525.1983,460.023564 532.733703,458.173788 542.858945,457.862242 L554.016127,457.511755 L554.016127,454.065295 C554.016127,449.937312 553.052296,446.851107 551.124606,444.806587 C549.196916,442.762067 546.208067,441.739822 542.15797,441.739822 C538.847795,441.739822 535.673969,442.226605 532.636396,443.200186 C529.598824,444.173767 526.678125,445.322576 523.874212,446.646646 L519.434705,436.832999 C522.939596,435.002667 526.775447,433.610467 530.942374,432.656358 C535.1093,431.702248 539.042508,431.225201 542.742116,431.225201 C550.959139,431.225201 557.160756,433.016563 561.347155,436.599341 C565.533553,440.182118 567.62672,445.809332 567.62672,453.48115 L567.62672,497 L557.813073,497 Z M537.367976,487.65367 C542.35271,487.65367 546.354068,486.26147 549.372169,483.477028 C552.39027,480.692587 553.899298,476.788586 553.899298,471.764908 L553.899298,466.15711 L545.604429,466.507597 C539.139852,466.741257 534.437527,467.821916 531.497312,469.749606 C528.557098,471.677296 527.087013,474.627202 527.087013,478.599412 C527.087013,481.481212 527.943751,483.710679 529.657253,485.28788 C531.370756,486.865081 533.940971,487.65367 537.367976,487.65367 L537.367976,487.65367 Z M608.57533,498.168291 C600.51408,498.168291 594.224841,495.247592 589.707425,489.406107 C585.19001,483.564621 582.931336,475.367192 582.931336,464.813575 C582.931336,454.221015 585.219217,445.974908 589.795047,440.075007 C594.370878,434.175107 600.708795,431.225201 608.808988,431.225201 C617.298614,431.225201 623.763094,434.360084 628.202623,440.629946 L628.903598,440.629946 C628.241563,435.9957 627.91055,432.335091 627.91055,429.648007 L627.91055,406.106938 L641.696388,406.106938 L641.696388,497 L630.948108,497 L628.553111,488.529888 L627.91055,488.529888 C623.509965,494.955522 617.064955,498.168291 608.57533,498.168291 L608.57533,498.168291 Z M612.255447,487.069524 C617.902217,487.069524 622.010667,485.482611 624.58092,482.308737 C627.151174,479.134863 628.475224,473.984697 628.553111,466.858085 L628.553111,464.930404 C628.553111,456.791268 627.22906,451.008284 624.58092,447.581279 C621.93278,444.154274 617.785388,442.440797 612.138618,442.440797 C607.309657,442.440797 603.590633,444.397665 600.981436,448.311461 C598.372239,452.225256 597.067661,457.803791 597.067661,465.047233 C597.067661,472.212789 598.333297,477.674496 600.864607,481.432519 C603.395918,485.190541 607.192826,487.069524 612.255447,487.069524 L612.255447,487.069524 Z M750.405892,437.417144 C750.405892,446.335146 747.485193,453.169582 741.643707,457.920657 C735.802221,462.671732 727.487965,465.047233 716.700688,465.047233 L707.821674,465.047233 L707.821674,497 L693.860593,497 L693.860593,411.597907 L718.453125,411.597907 C729.123572,411.597907 737.116552,413.778696 742.432304,418.140338 C747.748056,422.501981 750.405892,428.927519 750.405892,437.417144 L750.405892,437.417144 Z M707.821674,453.305906 L715.240324,453.305906 C722.40588,453.305906 727.663138,452.059741 731.012256,449.567374 C734.361375,447.075007 736.035909,443.180741 736.035909,437.884461 C736.035909,432.977613 734.536617,429.317004 731.537987,426.902523 C728.539358,424.488042 723.86624,423.28082 717.518492,423.28082 L707.821674,423.28082 L707.821674,453.305906 Z M836.917861,453.48115 C836.917861,467.578602 833.004125,478.355981 825.176534,485.813611 C817.348943,493.271241 806.075045,497 791.354501,497 L767.462944,497 L767.462944,411.597907 L793.866327,411.597907 C807.457517,411.597907 818.030448,415.258517 825.585436,422.579845 C833.140424,429.901174 836.917861,440.201506 836.917861,453.48115 L836.917861,453.48115 Z M822.197391,453.948466 C822.197391,433.503266 812.63697,423.28082 793.51584,423.28082 L781.424025,423.28082 L781.424025,485.258673 L791.354501,485.258673 C811.916531,485.258673 822.197391,474.822041 822.197391,453.948466 L822.197391,453.948466 Z M869.104286,497 L855.260034,497 L855.260034,411.597907 L903.45205,411.597907 L903.45205,423.397649 L869.104286,423.397649 L869.104286,450.093105 L901.290711,450.093105 L901.290711,461.951261 L869.104286,461.951261 L869.104286,497 Z" id="Download-PDF" fill="#FFFFFF" sketch:type="MSShapeGroup" transform="translate(493.965955, 452.137615) rotate(-10.000000) translate(-493.965955, -452.137615) "></path>
        </g>
    </g>
</svg>