<?xml version="1.0" encoding="UTF-8" standalone="no"?>
<svg width="193px" height="193px" viewBox="0 0 193 193" version="1.1" xmlns="http://www.w3.org/2000/svg" xmlns:xlink="http://www.w3.org/1999/xlink" xmlns:sketch="http://www.bohemiancoding.com/sketch/ns">
    <!-- Generator: Sketch 3.3 (11970) - http://www.bohemiancoding.com/sketch -->
    <title>heart</title>
    <desc>Created with Sketch.</desc>
    <defs></defs>
    <g id="Page-1" stroke="none" stroke-width="1" fill="none" fill-rule="evenodd" sketch:type="MSPage">
        <g id="heart" sketch:type="MSLayerGroup">
            <g id="Layer_1" sketch:type="MSShapeGroup">
                <path d="M96.5,193 C149.795478,193 193,149.795478 193,96.5 C193,43.2045216 149.795478,0 96.5,0 C43.2045216,0 0,43.2045216 0,96.5 C0,149.795478 43.2045216,193 96.5,193 Z" id="Oval" fill="#7E67A8"></path>
                <g id="Group" transform="translate(42.218750, 61.312500)" fill-opacity="0.329002491" fill="#231F20">
                    <g id="Shape">
                        <path d="M108.508219,32.1809219 C108.22475,15.5286406 94.71475,0.691765625 78.0292969,0.691765625 C68.3792969,0.691765625 59.87825,5.73992187 54.28125,13.1493125 C48.68425,5.73992187 40.1801875,0.691765625 30.5332031,0.691765625 C13.84775,0.691765625 0.340765625,15.5316562 0.05428125,32.1809219 L0,32.1809219 C0,32.2834531 0.021109375,32.3769375 0.021109375,32.4794687 C0.021109375,32.5548594 0,32.6272344 0,32.7086562 C0,33.1760781 0.11459375,33.5289062 0.135703125,33.9782344 C1.6284375,76.4110937 53.8530312,93.8082344 53.8530312,93.8082344 C53.8530312,93.8082344 106.843594,76.4322031 108.411719,34.0445781 C108.438859,33.571125 108.5625,33.1971875 108.5625,32.7086562 C108.5625,32.6272344 108.541391,32.5518437 108.541391,32.4794687 C108.541391,32.3709062 108.5625,32.2834531 108.5625,32.1809219 L108.508219,32.1809219 L108.508219,32.1809219 Z"></path>
                    </g>
                </g>
                <path d="M150.726969,87.4621719 C150.4435,70.8098906 136.9335,55.9730156 120.248047,55.9730156 C110.598047,55.9730156 102.097,61.0211719 96.5,68.4305625 C90.903,61.0211719 82.3989375,55.9730156 72.7519531,55.9730156 C56.0665,55.9730156 42.5595156,70.8129062 42.2730313,87.4621719 L42.21875,87.4621719 C42.21875,87.5647031 42.2398594,87.6581875 42.2398594,87.7607187 C42.2398594,87.8361094 42.21875,87.9084844 42.21875,87.9899062 C42.21875,88.4573281 42.3333437,88.8101562 42.3544531,89.2594844 C43.8471875,131.692344 96.0717812,149.089484 96.0717812,149.089484 C96.0717812,149.089484 149.062344,131.713453 150.630469,89.3258281 C150.657609,88.852375 150.78125,88.4784375 150.78125,87.9899062 C150.78125,87.9084844 150.760141,87.8330937 150.760141,87.7607187 C150.760141,87.6521562 150.78125,87.5647031 150.78125,87.4621719 L150.726969,87.4621719 L150.726969,87.4621719 Z" id="Shape" fill="#FFFFFF"></path>
            </g>
            <g id="Layer_2"></g>
        </g>
    </g>
</svg>