<?xml version="1.0" encoding="UTF-8" standalone="no"?>
<svg width="232px" height="232px" viewBox="0 0 232 232" version="1.1" xmlns="http://www.w3.org/2000/svg" xmlns:xlink="http://www.w3.org/1999/xlink" xmlns:sketch="http://www.bohemiancoding.com/sketch/ns">
    <!-- Generator: Sketch 3.3 (11970) - http://www.bohemiancoding.com/sketch -->
    <title>key</title>
    <desc>Created with Sketch.</desc>
    <defs></defs>
    <g id="Page-1" stroke="none" stroke-width="1" fill="none" fill-rule="evenodd" sketch:type="MSPage">
        <g id="key" sketch:type="MSLayerGroup">
            <g id="Layer_1" sketch:type="MSShapeGroup">
                <circle id="Oval" fill="#8DC373" cx="116" cy="116" r="116"></circle>
                <g id="Group" transform="translate(58.000000, 65.250000)" fill-opacity="0.3" fill="#231F20">
                    <g id="Shape">
                        <path d="M112.375,0 L97.875,0 C96.99775,0 96.1495,0.319 95.4825,0.899 L45.443,44.76875 C42.85475,44.225 38.85275,43.5 36.25,43.5 C16.26175,43.5 0,59.76175 0,79.75 C0,99.73825 16.26175,116 36.25,116 C56.23825,116 72.5,99.73825 72.5,79.75 C72.5,73.81225 71.369,69.832 70.08575,66.526 L82.42525,62.3355 C83.926,61.828 84.91925,60.39975 84.883,58.81925 L84.5785,45.05875 L98.426,44.0945 C100.282,43.964 101.73925,42.44875 101.79725,40.59275 L102.312,24.07 L113.158,21.663 C114.81825,21.3005 116,19.8215 116,18.125 L116,3.625 C116,1.624 114.376,0 112.375,0 L112.375,0 Z M25.375,79.75 C29.725,79.75 33.4805,82.30925 35.2205,85.9995 C35.88025,87.406 36.25,88.972 36.25,90.625 C36.25,96.628 31.378,101.5 25.375,101.5 C19.372,101.5 14.5,96.628 14.5,90.625 C14.5,84.622 19.372,79.75 25.375,79.75 L25.375,79.75 Z"></path>
                    </g>
                </g>
                <path d="M170.375,58 L155.875,58 C154.99775,58 154.1495,58.319 153.4825,58.899 L103.443,102.76875 C100.85475,102.225 96.85275,101.5 94.25,101.5 C74.26175,101.5 58,117.76175 58,137.75 C58,157.73825 74.26175,174 94.25,174 C114.23825,174 130.5,157.73825 130.5,137.75 C130.5,131.81225 129.369,127.832 128.08575,124.526 L140.42525,120.3355 C141.926,119.828 142.91925,118.39975 142.883,116.81925 L142.5785,103.05875 L156.426,102.0945 C158.282,101.964 159.73925,100.44875 159.79725,98.59275 L160.312,82.07 L171.158,79.663 C172.81825,79.3005 174,77.8215 174,76.125 L174,61.625 C174,59.624 172.376,58 170.375,58 L170.375,58 Z M83.375,137.75 C87.725,137.75 91.4805,140.30925 93.2205,143.9995 C93.88025,145.406 94.25,146.972 94.25,148.625 C94.25,154.628 89.378,159.5 83.375,159.5 C77.372,159.5 72.5,154.628 72.5,148.625 C72.5,142.622 77.372,137.75 83.375,137.75 L83.375,137.75 Z" id="Shape" fill="#FFFFFF"></path>
            </g>
            <g id="Layer_2"></g>
        </g>
    </g>
</svg>