<?xml version="1.0" encoding="UTF-8" standalone="no"?>
<svg width="980px" height="714px" viewBox="0 0 980 714" version="1.1" xmlns="http://www.w3.org/2000/svg" xmlns:xlink="http://www.w3.org/1999/xlink" xmlns:sketch="http://www.bohemiancoding.com/sketch/ns">
    <!-- Generator: Sketch 3.3 (11970) - http://www.bohemiancoding.com/sketch -->
    <title>LogIn</title>
    <desc>Created with Sketch.</desc>
    <defs>
        <radialGradient cx="48.9062673%" cy="34.3094985%" fx="48.9062673%" fy="34.3094985%" r="50%" id="radialGradient-1">
            <stop stop-color="#FFFFFF" stop-opacity="0.991" offset="0%"></stop>
            <stop stop-color="#FFFFFF" stop-opacity="0.616" offset="51.4%"></stop>
            <stop stop-color="#8D8D8D" stop-opacity="0" offset="100%"></stop>
        </radialGradient>
        <radialGradient cx="13.6048385%" cy="52.0220032%" fx="13.6048385%" fy="52.0220032%" r="9.93382684%" id="radialGradient-2">
            <stop stop-color="#FFFFFF" offset="0%"></stop>
            <stop stop-color="#FFFFFF" stop-opacity="0" offset="100%"></stop>
        </radialGradient>
        <radialGradient cx="83.1456267%" cy="47.8543948%" fx="83.1456267%" fy="47.8543948%" r="5.89832963%" id="radialGradient-3">
            <stop stop-color="#FFFFFF" offset="0%"></stop>
            <stop stop-color="#FFFFFF" stop-opacity="0" offset="100%"></stop>
        </radialGradient>
    </defs>
    <g id="Page-1" stroke="none" stroke-width="1" fill="none" fill-rule="evenodd" sketch:type="MSPage">
        <g id="LogIn" sketch:type="MSLayerGroup" transform="translate(-3.000000, 0.000000)">
            <g id="Group" transform="translate(36.240316, 15.889108)" fill-opacity="0.95" fill="#757575" sketch:type="MSShapeGroup">
                <path d="M459.855457,16.5168859 L821.007173,201.209707 C825.249813,203.379391 827.8252,206.149294 826.75946,207.396459 C825.693721,208.643623 821.390429,207.895774 817.147788,205.726089 L455.996073,21.0332685 C453.958685,19.9913494 452.20805,18.7541887 451.129287,17.5939476 C450.050524,16.4337066 449.731999,15.445426 450.243786,14.8465164 C451.309525,13.5993518 455.612817,14.3472017 459.855457,16.5168859" id="Shape"></path>
                <path d="M7.16700774,330.327598 L478.500585,4.82080268 C484.0376,0.996894761 490.063251,-0.720034458 491.959252,0.985933938 C493.855253,2.69190233 490.903627,7.17475282 485.366612,10.9986607 L14.0330349,336.505456 C8.49601931,340.329364 2.47036878,342.046293 0.57436773,340.340325 C-1.32163332,338.634356 1.62999215,334.151506 7.16700774,330.327598" id="Shape"></path>
            </g>
            <g id="Group" transform="translate(404.833708, 378.547295)"></g>
            <g id="Group" transform="translate(493.530988, 461.078619) rotate(-9.598338) translate(-493.530988, -461.078619) translate(24.030988, 279.078619)" fill="#17AE90" sketch:type="MSShapeGroup">
                <path d="M907.022582,0.394491538 C924.378395,0.394491538 938.448061,9.64862563 938.448061,21.0641785 L938.448061,342.560712 C938.448061,353.976265 924.378395,363.230399 907.022582,363.230399 L31.6459959,363.230399 C14.2901834,363.230399 0.220517474,353.976265 0.220517474,342.560712 L0.220517474,21.0641785 C0.220517474,9.64862563 14.2901834,0.394491538 31.6459959,0.394491538 L907.022582,0.394491538 Z" id="Shape"></path>
            </g>
            <g id="Group" transform="translate(429.209934, 0.168656)" sketch:type="MSShapeGroup">
                <path d="M56.4811948,72.3619296 C30.9605451,80.6179227 6.34898057,79.3605129 1.50972692,69.5534263 C-3.32952674,59.7463396 13.4360574,45.1033203 38.9567071,36.8473272 C64.4773568,28.5913342 89.0889213,29.8487439 93.928175,39.6558305 C98.7674286,49.4629172 82.0018445,64.1059365 56.4811948,72.3619296 L56.4811948,72.3619296 L56.4811948,72.3619296 Z" id="Shape" opacity="0.62" fill="url(#radialGradient-1)"></path>
                <path d="M105.352959,34.7025442 C105.352959,47.5593647 92.5123314,57.981877 76.6726141,57.981877 C60.8328968,57.981877 47.9922688,47.5593647 47.9922688,34.7025442 C47.9922688,21.8457236 60.8328968,11.4232113 76.6726141,11.4232113 C92.5123314,11.4232113 105.352959,21.8457236 105.352959,34.7025442 L105.352959,34.7025442 Z" id="Shape" fill="#666666"></path>
                <path d="M73.6432122,49.9847885 C62.9733088,55.1356011 50.1062592,53.5836334 44.9038526,46.5183716 C39.701446,39.4531099 44.1337279,29.550025 54.8036313,24.3992125 C65.4735348,19.2483999 78.3405843,20.8003677 83.5429909,27.8656294 C88.7453975,34.9308911 84.3131156,44.833976 73.6432122,49.9847885 L73.6432122,49.9847885 L73.6432122,49.9847885 Z" id="Shape" opacity="0.303" fill="url(#radialGradient-1)"></path>
                <path d="M98.0764632,29.9665138 C98.0764632,37.8983852 90.1545925,44.3284375 80.3824698,44.3284375 C70.6103471,44.3284375 62.6884765,37.8983852 62.6884765,29.9665138 C62.6884765,22.0346423 70.6103471,15.6045901 80.3824698,15.6045901 C90.1545925,15.6045901 98.0764632,22.0346423 98.0764632,29.9665138 L98.0764632,29.9665138 Z" id="Shape" fill="#4D4D4D"></path>
                <path d="M60.9961762,49.6271343 C54.890474,45.6685738 53.2469635,43.4258546 54.1763128,38.8736087 C56.8239714,44.7709553 60.7275201,49.2905179 60.9961762,49.6271343 L60.9961762,49.6271343 Z" id="Shape" opacity="0.74" fill="url(#radialGradient-2)"></path>
                <path d="M106.168416,16.2532808 C105.359582,24.4363783 96.3334621,30.5817283 86.0080135,29.9793042 C75.6825649,29.3768801 67.9678248,22.2548077 68.7766593,14.0717102 C69.5854938,5.88861273 78.6116136,-0.256737245 88.9370623,0.345686854 C99.2625109,0.948110953 106.977251,8.07018337 106.168416,16.2532808 L106.168416,16.2532808 L106.168416,16.2532808 Z" id="Shape" fill="#666666"></path>
                <path d="M91.7810117,2.08691409 C100.833247,6.7269356 103.428859,9.36502989 102.747354,14.7421453 C98.2572272,7.79627762 92.2014418,2.48278562 91.7810117,2.08691409 L91.7810117,2.08691409 Z" id="Shape" fill="url(#radialGradient-3)"></path>
            </g>
            <path d="M249.078125,511 L249.078125,396.78125 L267.75,396.78125 L267.75,494.984375 L316.109375,494.984375 L316.109375,511 L249.078125,511 Z M410.484375,467.640625 C410.484375,481.755279 406.86462,492.770794 399.625,500.6875 C392.38538,508.604206 382.307356,512.5625 369.390625,512.5625 C361.317668,512.5625 354.182323,510.739602 347.984375,507.09375 C341.786427,503.447898 337.02085,498.213576 333.6875,491.390625 C330.35415,484.567674 328.6875,476.651087 328.6875,467.640625 C328.6875,453.630138 332.281214,442.692748 339.46875,434.828125 C346.656286,426.963502 356.786393,423.03125 369.859375,423.03125 C382.359438,423.03125 392.255172,427.054647 399.546875,435.101562 C406.838578,443.148478 410.484375,453.994723 410.484375,467.640625 L410.484375,467.640625 Z M347.59375,467.640625 C347.59375,487.588641 354.963468,497.5625 369.703125,497.5625 C384.286531,497.5625 391.578125,487.588641 391.578125,467.640625 C391.578125,447.900943 384.234448,438.03125 369.546875,438.03125 C361.838503,438.03125 356.252621,440.583308 352.789062,445.6875 C349.325504,450.791692 347.59375,458.109327 347.59375,467.640625 L347.59375,467.640625 Z M504.546875,424.59375 L504.546875,434.671875 L489.78125,437.40625 C491.135423,439.229176 492.255204,441.468737 493.140625,444.125 C494.026046,446.781263 494.46875,449.593735 494.46875,452.5625 C494.46875,461.468795 491.395864,468.473933 485.25,473.578125 C479.104136,478.682317 470.640679,481.234375 459.859375,481.234375 C457.098945,481.234375 454.59897,481.026044 452.359375,480.609375 C448.401022,483.057304 446.421875,485.921859 446.421875,489.203125 C446.421875,491.182302 447.346345,492.666662 449.195312,493.65625 C451.04428,494.645838 454.442684,495.140625 459.390625,495.140625 L474.46875,495.140625 C484.000048,495.140625 491.239559,497.171855 496.1875,501.234375 C501.135441,505.296895 503.609375,511.156212 503.609375,518.8125 C503.609375,528.604216 499.572957,536.156223 491.5,541.46875 C483.427043,546.781277 471.760493,549.4375 456.5,549.4375 C444.729108,549.4375 435.744823,547.354187 429.546875,543.1875 C423.348927,539.020813 420.25,533.083372 420.25,525.375 C420.25,520.062473 421.929671,515.596372 425.289062,511.976562 C428.648454,508.356753 433.348928,505.843757 439.390625,504.4375 C436.942696,503.395828 434.924487,501.716157 433.335938,499.398438 C431.747388,497.080718 430.953125,494.645846 430.953125,492.09375 C430.953125,488.864567 431.864574,486.13022 433.6875,483.890625 C435.510426,481.65103 438.218732,479.437511 441.8125,477.25 C437.333311,475.322907 433.700535,472.184918 430.914062,467.835938 C428.12759,463.486957 426.734375,458.395863 426.734375,452.5625 C426.734375,443.187453 429.690075,435.921901 435.601562,430.765625 C441.51305,425.609349 449.937445,423.03125 460.875,423.03125 C463.322929,423.03125 465.888007,423.200519 468.570312,423.539062 C471.252618,423.877606 473.270827,424.229165 474.625,424.59375 L504.546875,424.59375 Z M436.65625,524.4375 C436.65625,528.395853 438.440086,531.442698 442.007812,533.578125 C445.575539,535.713552 450.588509,536.78125 457.046875,536.78125 C467.046925,536.78125 474.494767,535.348973 479.390625,532.484375 C484.286483,529.619777 486.734375,525.817732 486.734375,521.078125 C486.734375,517.328106 485.393243,514.658862 482.710938,513.070312 C480.028632,511.481763 475.041703,510.6875 467.75,510.6875 L453.84375,510.6875 C448.583307,510.6875 444.403661,511.924467 441.304688,514.398438 C438.205714,516.872408 436.65625,520.218729 436.65625,524.4375 L436.65625,524.4375 Z M444.546875,452.5625 C444.546875,457.979194 445.94009,462.145819 448.726562,465.0625 C451.513035,467.979181 455.510391,469.4375 460.71875,469.4375 C471.343803,469.4375 476.65625,463.760473 476.65625,452.40625 C476.65625,446.781222 475.341159,442.445328 472.710938,439.398438 C470.080716,436.351547 466.08336,434.828125 460.71875,434.828125 C455.406223,434.828125 451.382826,436.338527 448.648438,439.359375 C445.914049,442.380223 444.546875,446.781221 444.546875,452.5625 L444.546875,452.5625 Z M564.078125,511 L564.078125,396.78125 L582.75,396.78125 L582.75,511 L564.078125,511 Z M686.96875,511 L668.53125,511 L668.53125,457.875 C668.53125,451.2083 667.190118,446.234391 664.507812,442.953125 C661.825507,439.671859 657.567738,438.03125 651.734375,438.03125 C643.97392,438.03125 638.296893,440.322894 634.703125,444.90625 C631.109357,449.489606 629.3125,457.171821 629.3125,467.953125 L629.3125,511 L610.953125,511 L610.953125,424.59375 L625.328125,424.59375 L627.90625,435.921875 L628.84375,435.921875 C631.44793,431.807271 635.145809,428.63022 639.9375,426.390625 C644.729191,424.15103 650.041637,423.03125 655.875,423.03125 C676.60427,423.03125 686.96875,433.57802 686.96875,454.671875 L686.96875,511 Z" id="Log-In" fill="#FFFFFF" sketch:type="MSShapeGroup" transform="translate(474.234375, 473.109375) rotate(-10.000000) translate(-474.234375, -473.109375) "></path>
        </g>
    </g>
</svg>