<?xml version="1.0" encoding="UTF-8" standalone="no"?>
<svg width="180px" height="180px" viewBox="0 0 180 180" version="1.1" xmlns="http://www.w3.org/2000/svg" xmlns:xlink="http://www.w3.org/1999/xlink" xmlns:sketch="http://www.bohemiancoding.com/sketch/ns">
    <!-- Generator: Sketch 3.3 (11970) - http://www.bohemiancoding.com/sketch -->
    <title>open</title>
    <desc>Created with Sketch.</desc>
    <defs></defs>
    <g id="Page-1" stroke="none" stroke-width="1" fill="none" fill-rule="evenodd" sketch:type="MSPage">
        <g id="open" sketch:type="MSLayerGroup">
            <g id="Artboard"></g>
            <g id="Multicolor" sketch:type="MSShapeGroup">
                <path d="M90,180 C139.705627,180 180,139.705627 180,90 C180,40.2943725 139.705627,0 90,0 C40.2943725,0 0,40.2943725 0,90 C0,139.705627 40.2943725,180 90,180 Z" id="Oval" fill="#6589B9"></path>
                <g id="Group" transform="translate(37.598063, 37.636364)">
                    <ellipse id="Oval" fill="#FFFFFF" cx="44.2201189" cy="9.81818182" rx="9.81818182" ry="9.81818182"></ellipse>
                    <path d="M10.5666643,51.2934545 L42.5641189,7.164 C43.1188461,6.46363636 44.1464825,6.34254545 44.8108461,6.85636364 L83.811937,39.2252727 L88.0877552,38.5216364 L46.8612098,4.30690909 C44.7453916,2.66072727 41.6673916,3.03054545 39.959028,5.18727273 L5.97666432,52.0494545 L10.5666643,51.2934545 L10.5666643,51.2934545 Z" id="Shape" fill="#3E3E3F"></path>
                    <path d="M92.0315734,48.6710909 L98.415028,87.4218182 L14.4564825,101.254 L8.07302796,62.5032727 L92.0315734,48.6710909 L92.0315734,48.6710909 Z M94.7332098,41.6363636 C94.3143007,41.6363636 4.19320977,56.5092727 3.77920977,56.5763636 C1.99557341,56.8692727 0.787937046,58.5530909 1.0824825,60.3367273 L8.53120977,105.546182 C8.79466432,107.149818 10.1823007,108.287091 11.7564825,108.287091 C12.177028,108.287091 102.294846,93.4158182 102.710483,93.3470909 C104.494119,93.0525455 105.701755,91.3687273 105.40721,89.5850909 L97.9584825,44.3772727 C97.6933916,42.7736364 96.3057552,41.6363636 94.7332098,41.6363636 L94.7332098,41.6363636 L94.7332098,41.6363636 Z" id="Shape-Copy" fill-opacity="0.154664855" fill="#000000"></path>
                    <path d="M91.0315734,44.6710909 L97.415028,83.4218182 L13.4564825,97.254 L7.07302796,58.5032727 L91.0315734,44.6710909 L91.0315734,44.6710909 Z M93.7332098,37.6363636 C93.3143007,37.6363636 3.19320977,52.5092727 2.77920977,52.5763636 C0.99557341,52.8692727 -0.212062954,54.5530909 0.0824825006,56.3367273 L7.53120977,101.546182 C7.79466432,103.149818 9.18230068,104.287091 10.7564825,104.287091 C11.177028,104.287091 101.294846,89.4158182 101.710483,89.3470909 C103.494119,89.0525455 104.701755,87.3687273 104.40721,85.5850909 L96.9584825,40.3772727 C96.6933916,38.7736364 95.3057552,37.6363636 93.7332098,37.6363636 L93.7332098,37.6363636 L93.7332098,37.6363636 Z" id="Shape" fill="#FFFFFF"></path>
                    <ellipse id="Oval" fill="#CFD3D4" cx="44.2201189" cy="9.81818182" rx="3.27272727" ry="3.27272727"></ellipse>
                    <path d="M14.9881189,77.8025455 L14.979937,77.7501818 C14.1306643,72.5972727 17.5015734,67.7078182 23.093028,66.7865455 C28.6861189,65.8652727 33.3857552,69.372 34.235028,74.5249091 L34.2432098,74.5772727 C34.9124825,79.9265455 31.5415734,84.8176364 26.1301189,85.5409091 C20.5124825,86.292 15.8373916,82.9554545 14.9881189,77.8025455 L14.9881189,77.8025455 Z M30.0852098,75.3152727 L30.077028,75.2629091 C29.5664825,72.1554545 26.859937,69.9430909 23.6493916,70.4716364 C20.4388461,71.0001818 18.6306643,73.9047273 19.1428461,77.0121818 L19.151028,77.0629091 C19.6632098,80.1703636 22.3681189,82.3843636 25.5786643,81.8558182 C28.7875734,81.3272727 30.5973916,78.4227273 30.0852098,75.3152727 L30.0852098,75.3152727 Z" id="Shape" fill="#F0F1F1"></path>
                    <path d="M34.2432098,74.5772727 L34.235028,74.5249091 C33.3857552,69.372 28.6861189,65.8652727 23.093028,66.7865455 C17.5015734,67.7078182 14.1306643,72.5972727 14.979937,77.7501818 L14.9881189,77.8025455 C15.789937,82.6674545 20.0232098,86.0596364 25.2006643,85.6505455 L34.3675734,76.4836364 C34.3888461,75.8569091 34.3495734,75.2187273 34.2432098,74.5772727 L34.2432098,74.5772727 Z M25.5753916,81.8558182 C22.3664825,82.3843636 19.659937,80.172 19.1477552,77.0629091 L19.1395734,77.0121818 C18.6273916,73.9047273 20.4355734,71.0001818 23.6461189,70.4716364 C26.8566643,69.9430909 29.5632098,72.1554545 30.0737552,75.2629091 L30.081937,75.3152727 C30.5973916,78.4227273 28.7875734,81.3272727 25.5753916,81.8558182 L25.5753916,81.8558182 Z" id="Shape" fill="#FFFFFF"></path>
                    <path d="M36.6175734,66.9256364 C36.4343007,65.8112727 37.169028,64.7852727 38.2833916,64.6036364 L43.6948461,63.7118182 C48.0197552,63 51.0568461,65.1321818 51.6672098,68.8352727 L51.6753916,68.8876364 C52.365937,73.0816364 49.4613916,75.7947273 45.3966643,76.464 L42.3661189,76.9630909 L42.9584825,80.5614545 C43.1417552,81.6758182 42.407028,82.7001818 41.2926643,82.8834545 C40.1783007,83.0667273 39.153937,82.332 38.9706643,81.2176364 L36.6175734,66.9256364 L36.6175734,66.9256364 Z M44.9401189,72.8950909 C46.9348461,72.5661818 47.9035734,71.1834545 47.6483007,69.6305455 L47.6401189,69.5781818 C47.3455734,67.7912727 45.9448461,67.0385455 43.9501189,67.3658182 L40.8688461,67.8730909 L41.781937,73.4154545 L44.9401189,72.8950909 L44.9401189,72.8950909 Z" id="Shape" fill="#F0F1F1"></path>
                    <path d="M43.6948461,63.7118182 L38.2833916,64.6036364 C37.1706643,64.7869091 36.4343007,65.8129091 36.6175734,66.9256364 L37.6517552,73.1994545 L41.1683007,69.6829091 L40.8704825,67.8730909 L43.3937552,67.4574545 L47.0575734,63.7936364 C46.0544825,63.5612727 44.9352098,63.5072727 43.6948461,63.7118182 L43.6948461,63.7118182 Z" id="Shape" fill="#FFFFFF"></path>
                    <path d="M53.9057552,64.0767273 C53.7224825,62.9623636 54.4572098,61.938 55.5715734,61.7547273 L65.6188461,60.1003636 C66.6023007,59.9383636 67.5366643,60.6092727 67.6986643,61.5927273 C67.8606643,62.5778182 67.1864825,63.486 66.2013916,63.648 L58.1226643,64.9783636 L58.7281189,68.6552727 L65.6417552,67.5163636 C66.6252098,67.3543636 67.5595734,68.0252727 67.7215734,69.0087273 C67.8835734,69.9921818 67.2093916,70.902 66.225937,71.064 L59.3123007,72.2029091 L59.939028,76.0090909 L68.147028,74.6558182 C69.1321189,74.4938182 70.0664825,75.1647273 70.2284825,76.1481818 C70.3904825,77.1332727 69.7163007,78.0414545 68.7312098,78.2034545 L58.5546643,79.8790909 C57.4435734,80.064 56.4192098,79.3292727 56.2343007,78.2149091 L53.9057552,64.0767273 Z" id="Shape" fill="#F0F1F1"></path>
                    <path d="M71.229937,61.1181818 C71.0466643,60.0038182 71.7813916,58.9794545 72.8941189,58.7961818 L73.3081189,58.7274545 C74.267028,58.5687273 74.9133916,58.9418182 75.5728461,59.5505455 L84.9263007,68.382 L83.3864825,59.0350909 C83.2064825,57.9469091 83.9428461,56.9209091 85.031028,56.7425455 C86.1192098,56.5641818 87.1435734,57.2989091 87.3235734,58.3870909 L89.6995734,72.8083636 C89.8828461,73.9227273 89.1481189,74.9470909 88.0337552,75.1303636 L87.9044825,75.1516364 C86.9455734,75.3103636 86.2992098,74.9372727 85.6397552,74.3285455 L75.941028,65.1812727 L77.5413916,74.8914545 C77.7213916,75.9796364 76.985028,77.004 75.8984825,77.1823636 C74.811937,77.3607273 73.785937,76.6276364 73.6075734,75.5394545 L71.229937,61.1181818 L71.229937,61.1181818 Z" id="Shape" fill="#F0F1F1"></path>
                </g>
            </g>
        </g>
    </g>
</svg>