<?xml version="1.0" encoding="UTF-8" standalone="no"?>
<svg width="980px" height="714px" viewBox="0 0 980 714" version="1.1" xmlns="http://www.w3.org/2000/svg" xmlns:xlink="http://www.w3.org/1999/xlink" xmlns:sketch="http://www.bohemiancoding.com/sketch/ns">
    <!-- Generator: Sketch 3.3 (11970) - http://www.bohemiancoding.com/sketch -->
    <title>SignIn-Btn</title>
    <desc>Created with Sketch.</desc>
    <defs>
        <radialGradient cx="48.9062673%" cy="34.3094985%" fx="48.9062673%" fy="34.3094985%" r="50%" id="radialGradient-1">
            <stop stop-color="#FFFFFF" stop-opacity="0.991" offset="0%"></stop>
            <stop stop-color="#FFFFFF" stop-opacity="0.616" offset="51.4%"></stop>
            <stop stop-color="#8D8D8D" stop-opacity="0" offset="100%"></stop>
        </radialGradient>
        <radialGradient cx="13.6048385%" cy="52.0220032%" fx="13.6048385%" fy="52.0220032%" r="9.93382684%" id="radialGradient-2">
            <stop stop-color="#FFFFFF" offset="0%"></stop>
            <stop stop-color="#FFFFFF" stop-opacity="0" offset="100%"></stop>
        </radialGradient>
        <radialGradient cx="83.1456267%" cy="47.8543948%" fx="83.1456267%" fy="47.8543948%" r="5.89832963%" id="radialGradient-3">
            <stop stop-color="#FFFFFF" offset="0%"></stop>
            <stop stop-color="#FFFFFF" stop-opacity="0" offset="100%"></stop>
        </radialGradient>
    </defs>
    <g id="Page-1" stroke="none" stroke-width="1" fill="none" fill-rule="evenodd" sketch:type="MSPage">
        <g id="SignIn-Btn" sketch:type="MSLayerGroup" transform="translate(-3.000000, 0.000000)">
            <g id="Group" transform="translate(36.240316, 15.889108)" fill-opacity="0.95" fill="#757575" sketch:type="MSShapeGroup">
                <path d="M459.855457,16.5168859 L821.007173,201.209707 C825.249813,203.379391 827.8252,206.149294 826.75946,207.396459 C825.693721,208.643623 821.390429,207.895774 817.147788,205.726089 L455.996073,21.0332685 C453.958685,19.9913494 452.20805,18.7541887 451.129287,17.5939476 C450.050524,16.4337066 449.731999,15.445426 450.243786,14.8465164 C451.309525,13.5993518 455.612817,14.3472017 459.855457,16.5168859" id="Shape"></path>
                <path d="M7.16700774,330.327598 L478.500585,4.82080268 C484.0376,0.996894761 490.063251,-0.720034458 491.959252,0.985933938 C493.855253,2.69190233 490.903627,7.17475282 485.366612,10.9986607 L14.0330349,336.505456 C8.49601931,340.329364 2.47036878,342.046293 0.57436773,340.340325 C-1.32163332,338.634356 1.62999215,334.151506 7.16700774,330.327598" id="Shape"></path>
            </g>
            <g id="Group" transform="translate(404.833708, 378.547295)"></g>
            <g id="Group" transform="translate(493.530988, 461.078619) rotate(-9.598338) translate(-493.530988, -461.078619) translate(24.030988, 279.078619)" fill-opacity="0.95" fill="#9DC963" sketch:type="MSShapeGroup">
                <path d="M907.022582,0.394491538 C924.378395,0.394491538 938.448061,9.64862563 938.448061,21.0641785 L938.448061,342.560712 C938.448061,353.976265 924.378395,363.230399 907.022582,363.230399 L31.6459959,363.230399 C14.2901834,363.230399 0.220517474,353.976265 0.220517474,342.560712 L0.220517474,21.0641785 C0.220517474,9.64862563 14.2901834,0.394491538 31.6459959,0.394491538 L907.022582,0.394491538 Z" id="Shape"></path>
            </g>
            <g id="Group" transform="translate(429.209934, 0.168656)" sketch:type="MSShapeGroup">
                <path d="M56.4811948,72.3619296 C30.9605451,80.6179227 6.34898057,79.3605129 1.50972692,69.5534263 C-3.32952674,59.7463396 13.4360574,45.1033203 38.9567071,36.8473272 C64.4773568,28.5913342 89.0889213,29.8487439 93.928175,39.6558305 C98.7674286,49.4629172 82.0018445,64.1059365 56.4811948,72.3619296 L56.4811948,72.3619296 L56.4811948,72.3619296 Z" id="Shape" opacity="0.62" fill="url(#radialGradient-1)"></path>
                <path d="M105.352959,34.7025442 C105.352959,47.5593647 92.5123314,57.981877 76.6726141,57.981877 C60.8328968,57.981877 47.9922688,47.5593647 47.9922688,34.7025442 C47.9922688,21.8457236 60.8328968,11.4232113 76.6726141,11.4232113 C92.5123314,11.4232113 105.352959,21.8457236 105.352959,34.7025442 L105.352959,34.7025442 Z" id="Shape" fill="#666666"></path>
                <path d="M73.6432122,49.9847885 C62.9733088,55.1356011 50.1062592,53.5836334 44.9038526,46.5183716 C39.701446,39.4531099 44.1337279,29.550025 54.8036313,24.3992125 C65.4735348,19.2483999 78.3405843,20.8003677 83.5429909,27.8656294 C88.7453975,34.9308911 84.3131156,44.833976 73.6432122,49.9847885 L73.6432122,49.9847885 L73.6432122,49.9847885 Z" id="Shape" opacity="0.303" fill="url(#radialGradient-1)"></path>
                <path d="M98.0764632,29.9665138 C98.0764632,37.8983852 90.1545925,44.3284375 80.3824698,44.3284375 C70.6103471,44.3284375 62.6884765,37.8983852 62.6884765,29.9665138 C62.6884765,22.0346423 70.6103471,15.6045901 80.3824698,15.6045901 C90.1545925,15.6045901 98.0764632,22.0346423 98.0764632,29.9665138 L98.0764632,29.9665138 Z" id="Shape" fill="#4D4D4D"></path>
                <path d="M60.9961762,49.6271343 C54.890474,45.6685738 53.2469635,43.4258546 54.1763128,38.8736087 C56.8239714,44.7709553 60.7275201,49.2905179 60.9961762,49.6271343 L60.9961762,49.6271343 Z" id="Shape" opacity="0.74" fill="url(#radialGradient-2)"></path>
                <path d="M106.168416,16.2532808 C105.359582,24.4363783 96.3334621,30.5817283 86.0080135,29.9793042 C75.6825649,29.3768801 67.9678248,22.2548077 68.7766593,14.0717102 C69.5854938,5.88861273 78.6116136,-0.256737245 88.9370623,0.345686854 C99.2625109,0.948110953 106.977251,8.07018337 106.168416,16.2532808 L106.168416,16.2532808 L106.168416,16.2532808 Z" id="Shape" fill="#666666"></path>
                <path d="M91.7810117,2.08691409 C100.833247,6.7269356 103.428859,9.36502989 102.747354,14.7421453 C98.2572272,7.79627762 92.2014418,2.48278562 91.7810117,2.08691409 L91.7810117,2.08691409 Z" id="Shape" fill="url(#radialGradient-3)"></path>
            </g>
            <path d="M284.9375,479.984375 C284.9375,490.140676 281.265662,498.109346 273.921875,503.890625 C266.578088,509.671904 256.447981,512.5625 243.53125,512.5625 C230.614519,512.5625 220.041708,510.557312 211.8125,506.546875 L211.8125,488.890625 C217.020859,491.338554 222.554658,493.265618 228.414062,494.671875 C234.273467,496.078132 239.729141,496.78125 244.78125,496.78125 C252.17712,496.78125 257.632795,495.375014 261.148438,492.5625 C264.66408,489.749986 266.421875,485.973982 266.421875,481.234375 C266.421875,476.96352 264.807308,473.343765 261.578125,470.375 C258.348942,467.406235 251.682342,463.890645 241.578125,459.828125 C231.161406,455.609354 223.81773,450.791694 219.546875,445.375 C215.27602,439.958306 213.140625,433.447955 213.140625,425.84375 C213.140625,416.312452 216.526008,408.812527 223.296875,403.34375 C230.067742,397.874973 239.156193,395.140625 250.5625,395.140625 C261.500055,395.140625 272.385362,397.536434 283.21875,402.328125 L277.28125,417.5625 C267.124949,413.291645 258.06254,411.15625 250.09375,411.15625 C244.052053,411.15625 239.468766,412.471341 236.34375,415.101562 C233.218734,417.731784 231.65625,421.208312 231.65625,425.53125 C231.65625,428.500015 232.281244,431.039052 233.53125,433.148438 C234.781256,435.257823 236.838527,437.249991 239.703125,439.125 C242.567723,441.000009 247.723921,443.473943 255.171875,446.546875 C263.557334,450.036476 269.703105,453.291652 273.609375,456.3125 C277.515645,459.333348 280.380199,462.744773 282.203125,466.546875 C284.026051,470.348977 284.9375,474.828099 284.9375,479.984375 L284.9375,479.984375 Z M323.453125,511 L305.09375,511 L305.09375,424.59375 L323.453125,424.59375 L323.453125,511 Z M304,401.703125 C304,398.421859 304.898429,395.895842 306.695312,394.125 C308.492196,392.354158 311.057275,391.46875 314.390625,391.46875 C317.619808,391.46875 320.132804,392.354158 321.929688,394.125 C323.726571,395.895842 324.625,398.421859 324.625,401.703125 C324.625,404.828141 323.726571,407.289054 321.929688,409.085938 C320.132804,410.882821 317.619808,411.78125 314.390625,411.78125 C311.057275,411.78125 308.492196,410.882821 306.695312,409.085938 C304.898429,407.289054 304,404.828141 304,401.703125 L304,401.703125 Z M422.671875,424.59375 L422.671875,434.671875 L407.90625,437.40625 C409.260423,439.229176 410.380204,441.468737 411.265625,444.125 C412.151046,446.781263 412.59375,449.593735 412.59375,452.5625 C412.59375,461.468795 409.520864,468.473933 403.375,473.578125 C397.229136,478.682317 388.765679,481.234375 377.984375,481.234375 C375.223945,481.234375 372.72397,481.026044 370.484375,480.609375 C366.526022,483.057304 364.546875,485.921859 364.546875,489.203125 C364.546875,491.182302 365.471345,492.666662 367.320312,493.65625 C369.16928,494.645838 372.567684,495.140625 377.515625,495.140625 L392.59375,495.140625 C402.125048,495.140625 409.364559,497.171855 414.3125,501.234375 C419.260441,505.296895 421.734375,511.156212 421.734375,518.8125 C421.734375,528.604216 417.697957,536.156223 409.625,541.46875 C401.552043,546.781277 389.885493,549.4375 374.625,549.4375 C362.854108,549.4375 353.869823,547.354187 347.671875,543.1875 C341.473927,539.020813 338.375,533.083372 338.375,525.375 C338.375,520.062473 340.054671,515.596372 343.414062,511.976562 C346.773454,508.356753 351.473928,505.843757 357.515625,504.4375 C355.067696,503.395828 353.049487,501.716157 351.460938,499.398438 C349.872388,497.080718 349.078125,494.645846 349.078125,492.09375 C349.078125,488.864567 349.989574,486.13022 351.8125,483.890625 C353.635426,481.65103 356.343732,479.437511 359.9375,477.25 C355.458311,475.322907 351.825535,472.184918 349.039062,467.835938 C346.25259,463.486957 344.859375,458.395863 344.859375,452.5625 C344.859375,443.187453 347.815075,435.921901 353.726562,430.765625 C359.63805,425.609349 368.062445,423.03125 379,423.03125 C381.447929,423.03125 384.013007,423.200519 386.695312,423.539062 C389.377618,423.877606 391.395827,424.229165 392.75,424.59375 L422.671875,424.59375 Z M354.78125,524.4375 C354.78125,528.395853 356.565086,531.442698 360.132812,533.578125 C363.700539,535.713552 368.713509,536.78125 375.171875,536.78125 C385.171925,536.78125 392.619767,535.348973 397.515625,532.484375 C402.411483,529.619777 404.859375,525.817732 404.859375,521.078125 C404.859375,517.328106 403.518243,514.658862 400.835938,513.070312 C398.153632,511.481763 393.166703,510.6875 385.875,510.6875 L371.96875,510.6875 C366.708307,510.6875 362.528661,511.924467 359.429688,514.398438 C356.330714,516.872408 354.78125,520.218729 354.78125,524.4375 L354.78125,524.4375 Z M362.671875,452.5625 C362.671875,457.979194 364.06509,462.145819 366.851562,465.0625 C369.638035,467.979181 373.635391,469.4375 378.84375,469.4375 C389.468803,469.4375 394.78125,463.760473 394.78125,452.40625 C394.78125,446.781222 393.466159,442.445328 390.835938,439.398438 C388.205716,436.351547 384.20836,434.828125 378.84375,434.828125 C373.531223,434.828125 369.507826,436.338527 366.773438,439.359375 C364.039049,442.380223 362.671875,446.781221 362.671875,452.5625 L362.671875,452.5625 Z M514.703125,511 L496.265625,511 L496.265625,457.875 C496.265625,451.2083 494.924493,446.234391 492.242188,442.953125 C489.559882,439.671859 485.302113,438.03125 479.46875,438.03125 C471.708295,438.03125 466.031268,440.322894 462.4375,444.90625 C458.843732,449.489606 457.046875,457.171821 457.046875,467.953125 L457.046875,511 L438.6875,511 L438.6875,424.59375 L453.0625,424.59375 L455.640625,435.921875 L456.578125,435.921875 C459.182305,431.807271 462.880184,428.63022 467.671875,426.390625 C472.463566,424.15103 477.776012,423.03125 483.609375,423.03125 C504.338645,423.03125 514.703125,433.57802 514.703125,454.671875 L514.703125,511 Z M673.296875,396.78125 L673.296875,470.6875 C673.296875,479.125042 671.486997,486.507781 667.867188,492.835938 C664.247378,499.164094 659.013055,504.033837 652.164062,507.445312 C645.31507,510.856788 637.125048,512.5625 627.59375,512.5625 C613.427013,512.5625 602.411498,508.812538 594.546875,501.3125 C586.682252,493.812462 582.75,483.500066 582.75,470.375 L582.75,396.78125 L601.5,396.78125 L601.5,469.046875 C601.5,478.474005 603.687478,485.427061 608.0625,489.90625 C612.437522,494.385439 619.156205,496.625 628.21875,496.625 C645.823005,496.625 654.625,487.380301 654.625,468.890625 L654.625,396.78125 L673.296875,396.78125 Z M744.390625,512.5625 C733.45307,512.5625 724.963572,508.630248 718.921875,500.765625 L717.828125,500.765625 C718.557295,508.057328 718.921875,512.484367 718.921875,514.046875 L718.921875,549.4375 L700.5625,549.4375 L700.5625,424.59375 L715.40625,424.59375 C715.822919,426.208341 716.682285,430.06247 717.984375,436.15625 L718.921875,436.15625 C724.65107,427.406206 733.244734,423.03125 744.703125,423.03125 C755.484429,423.03125 763.882782,426.937461 769.898438,434.75 C775.914093,442.562539 778.921875,453.525971 778.921875,467.640625 C778.921875,481.755279 775.86201,492.770794 769.742188,500.6875 C763.622365,508.604206 755.171929,512.5625 744.390625,512.5625 L744.390625,512.5625 Z M739.9375,438.03125 C732.645797,438.03125 727.320329,440.166645 723.960937,444.4375 C720.601546,448.708355 718.921875,455.531203 718.921875,464.90625 L718.921875,467.640625 C718.921875,478.161511 720.588525,485.778622 723.921875,490.492188 C727.255225,495.205753 732.697879,497.5625 740.25,497.5625 C746.604198,497.5625 751.499983,494.958359 754.9375,489.75 C758.375017,484.541641 760.09375,477.11984 760.09375,467.484375 C760.09375,457.796827 758.388038,450.466171 754.976562,445.492188 C751.565087,440.518204 746.552116,438.03125 739.9375,438.03125 L739.9375,438.03125 Z" id="Sign-Up" fill="#FFFFFF" sketch:type="MSShapeGroup" transform="translate(499.468750, 470.453125) rotate(-10.000000) translate(-499.468750, -470.453125) "></path>
        </g>
    </g>
</svg>