<?xml version="1.0" encoding="UTF-8" standalone="no"?>
<svg width="980px" height="714px" viewBox="0 0 980 714" version="1.1" xmlns="http://www.w3.org/2000/svg" xmlns:xlink="http://www.w3.org/1999/xlink" xmlns:sketch="http://www.bohemiancoding.com/sketch/ns">
    <!-- Generator: Sketch 3.3 (11970) - http://www.bohemiancoding.com/sketch -->
    <title>TryOnline-Btn</title>
    <desc>Created with Sketch.</desc>
    <defs>
        <radialGradient cx="48.9062673%" cy="34.3094985%" fx="48.9062673%" fy="34.3094985%" r="50%" id="radialGradient-1">
            <stop stop-color="#FFFFFF" stop-opacity="0.991" offset="0%"></stop>
            <stop stop-color="#FFFFFF" stop-opacity="0.616" offset="51.4%"></stop>
            <stop stop-color="#8D8D8D" stop-opacity="0" offset="100%"></stop>
        </radialGradient>
        <radialGradient cx="13.6048385%" cy="52.0220032%" fx="13.6048385%" fy="52.0220032%" r="9.93382684%" id="radialGradient-2">
            <stop stop-color="#FFFFFF" offset="0%"></stop>
            <stop stop-color="#FFFFFF" stop-opacity="0" offset="100%"></stop>
        </radialGradient>
        <radialGradient cx="83.1456267%" cy="47.8543948%" fx="83.1456267%" fy="47.8543948%" r="5.89832963%" id="radialGradient-3">
            <stop stop-color="#FFFFFF" offset="0%"></stop>
            <stop stop-color="#FFFFFF" stop-opacity="0" offset="100%"></stop>
        </radialGradient>
    </defs>
    <g id="Page-1" stroke="none" stroke-width="1" fill="none" fill-rule="evenodd" sketch:type="MSPage">
        <g id="TryOnline-Btn" sketch:type="MSLayerGroup" transform="translate(-3.000000, 0.000000)">
            <g id="Group" transform="translate(36.240316, 15.889108)" fill-opacity="0.95" fill="#757575" sketch:type="MSShapeGroup">
                <path d="M459.855457,16.5168859 L821.007173,201.209707 C825.249813,203.379391 827.8252,206.149294 826.75946,207.396459 C825.693721,208.643623 821.390429,207.895774 817.147788,205.726089 L455.996073,21.0332685 C453.958685,19.9913494 452.20805,18.7541887 451.129287,17.5939476 C450.050524,16.4337066 449.731999,15.445426 450.243786,14.8465164 C451.309525,13.5993518 455.612817,14.3472017 459.855457,16.5168859" id="Shape"></path>
                <path d="M7.16700774,330.327598 L478.500585,4.82080268 C484.0376,0.996894761 490.063251,-0.720034458 491.959252,0.985933938 C493.855253,2.69190233 490.903627,7.17475282 485.366612,10.9986607 L14.0330349,336.505456 C8.49601931,340.329364 2.47036878,342.046293 0.57436773,340.340325 C-1.32163332,338.634356 1.62999215,334.151506 7.16700774,330.327598" id="Shape"></path>
            </g>
            <g id="Group" transform="translate(404.833708, 378.547295)"></g>
            <g id="Group" transform="translate(493.530988, 461.078619) rotate(-9.598338) translate(-493.530988, -461.078619) translate(24.030988, 279.078619)" fill="#759BCF" sketch:type="MSShapeGroup">
                <path d="M907.022582,0.394491538 C924.378395,0.394491538 938.448061,9.64862563 938.448061,21.0641785 L938.448061,342.560712 C938.448061,353.976265 924.378395,363.230399 907.022582,363.230399 L31.6459959,363.230399 C14.2901834,363.230399 0.220517474,353.976265 0.220517474,342.560712 L0.220517474,21.0641785 C0.220517474,9.64862563 14.2901834,0.394491538 31.6459959,0.394491538 L907.022582,0.394491538 Z" id="Shape"></path>
            </g>
            <g id="Group" transform="translate(429.209934, 0.168656)" sketch:type="MSShapeGroup">
                <path d="M56.4811948,72.3619296 C30.9605451,80.6179227 6.34898057,79.3605129 1.50972692,69.5534263 C-3.32952674,59.7463396 13.4360574,45.1033203 38.9567071,36.8473272 C64.4773568,28.5913342 89.0889213,29.8487439 93.928175,39.6558305 C98.7674286,49.4629172 82.0018445,64.1059365 56.4811948,72.3619296 L56.4811948,72.3619296 L56.4811948,72.3619296 Z" id="Shape" opacity="0.62" fill="url(#radialGradient-1)"></path>
                <path d="M105.352959,34.7025442 C105.352959,47.5593647 92.5123314,57.981877 76.6726141,57.981877 C60.8328968,57.981877 47.9922688,47.5593647 47.9922688,34.7025442 C47.9922688,21.8457236 60.8328968,11.4232113 76.6726141,11.4232113 C92.5123314,11.4232113 105.352959,21.8457236 105.352959,34.7025442 L105.352959,34.7025442 Z" id="Shape" fill="#666666"></path>
                <path d="M73.6432122,49.9847885 C62.9733088,55.1356011 50.1062592,53.5836334 44.9038526,46.5183716 C39.701446,39.4531099 44.1337279,29.550025 54.8036313,24.3992125 C65.4735348,19.2483999 78.3405843,20.8003677 83.5429909,27.8656294 C88.7453975,34.9308911 84.3131156,44.833976 73.6432122,49.9847885 L73.6432122,49.9847885 L73.6432122,49.9847885 Z" id="Shape" opacity="0.303" fill="url(#radialGradient-1)"></path>
                <path d="M98.0764632,29.9665138 C98.0764632,37.8983852 90.1545925,44.3284375 80.3824698,44.3284375 C70.6103471,44.3284375 62.6884765,37.8983852 62.6884765,29.9665138 C62.6884765,22.0346423 70.6103471,15.6045901 80.3824698,15.6045901 C90.1545925,15.6045901 98.0764632,22.0346423 98.0764632,29.9665138 L98.0764632,29.9665138 Z" id="Shape" fill="#4D4D4D"></path>
                <path d="M60.9961762,49.6271343 C54.890474,45.6685738 53.2469635,43.4258546 54.1763128,38.8736087 C56.8239714,44.7709553 60.7275201,49.2905179 60.9961762,49.6271343 L60.9961762,49.6271343 Z" id="Shape" opacity="0.74" fill="url(#radialGradient-2)"></path>
                <path d="M106.168416,16.2532808 C105.359582,24.4363783 96.3334621,30.5817283 86.0080135,29.9793042 C75.6825649,29.3768801 67.9678248,22.2548077 68.7766593,14.0717102 C69.5854938,5.88861273 78.6116136,-0.256737245 88.9370623,0.345686854 C99.2625109,0.948110953 106.977251,8.07018337 106.168416,16.2532808 L106.168416,16.2532808 L106.168416,16.2532808 Z" id="Shape" fill="#666666"></path>
                <path d="M91.7810117,2.08691409 C100.833247,6.7269356 103.428859,9.36502989 102.747354,14.7421453 C98.2572272,7.79627762 92.2014418,2.48278562 91.7810117,2.08691409 L91.7810117,2.08691409 Z" id="Shape" fill="url(#radialGradient-3)"></path>
            </g>
            <path d="M158.53125,511 L139.859375,511 L139.859375,412.796875 L106.265625,412.796875 L106.265625,396.78125 L192.125,396.78125 L192.125,412.796875 L158.53125,412.796875 L158.53125,511 Z M243.53125,423.03125 C247.229185,423.03125 250.27603,423.291664 252.671875,423.8125 L250.875,440.921875 C248.27082,440.296872 245.562514,439.984375 242.75,439.984375 C235.406213,439.984375 229.455752,442.380184 224.898438,447.171875 C220.341123,451.963566 218.0625,458.187462 218.0625,465.84375 L218.0625,511 L199.703125,511 L199.703125,424.59375 L214.078125,424.59375 L216.5,439.828125 L217.4375,439.828125 C220.302098,434.671849 224.039039,430.583348 228.648438,427.5625 C233.257836,424.541652 238.218723,423.03125 243.53125,423.03125 L243.53125,423.03125 Z M255.5625,424.59375 L275.5625,424.59375 L293.140625,473.578125 C295.796888,480.557327 297.567704,487.119761 298.453125,493.265625 L299.078125,493.265625 C299.546877,490.401027 300.406244,486.9245 301.65625,482.835938 C302.906256,478.747375 309.520773,459.333507 321.5,424.59375 L341.34375,424.59375 L304.390625,522.484375 C297.671841,540.453215 286.474037,549.4375 270.796875,549.4375 C266.734355,549.4375 262.776061,548.994796 258.921875,548.109375 L258.921875,533.578125 C261.682305,534.203128 264.833316,534.515625 268.375,534.515625 C277.229211,534.515625 283.453107,529.385468 287.046875,519.125 L290.25,511 L255.5625,424.59375 Z M499.390625,453.734375 C499.390625,472.328218 494.742234,486.781198 485.445312,497.09375 C476.148391,507.406302 462.98446,512.5625 445.953125,512.5625 C428.713455,512.5625 415.4714,507.445364 406.226562,497.210938 C396.981725,486.976511 392.359375,472.432386 392.359375,453.578125 C392.359375,434.723864 397.007766,420.244842 406.304688,410.140625 C415.601609,400.036408 428.869705,394.984375 446.109375,394.984375 C463.088627,394.984375 476.213495,400.114532 485.484375,410.375 C494.755255,420.635468 499.390625,435.088448 499.390625,453.734375 L499.390625,453.734375 Z M412.203125,453.734375 C412.203125,467.796945 415.041638,478.460901 420.71875,485.726562 C426.395862,492.992224 434.807236,496.625 445.953125,496.625 C457.04693,496.625 465.419243,493.031286 471.070312,485.84375 C476.721382,478.656214 479.546875,467.953196 479.546875,453.734375 C479.546875,439.723888 476.747424,429.098995 471.148438,421.859375 C465.549451,414.619755 457.20318,411 446.109375,411 C434.911402,411 426.460966,414.619755 420.757812,421.859375 C415.054659,429.098995 412.203125,439.723888 412.203125,453.734375 L412.203125,453.734375 Z M597.984375,511 L579.546875,511 L579.546875,457.875 C579.546875,451.2083 578.205743,446.234391 575.523438,442.953125 C572.841132,439.671859 568.583363,438.03125 562.75,438.03125 C554.989545,438.03125 549.312518,440.322894 545.71875,444.90625 C542.124982,449.489606 540.328125,457.171821 540.328125,467.953125 L540.328125,511 L521.96875,511 L521.96875,424.59375 L536.34375,424.59375 L538.921875,435.921875 L539.859375,435.921875 C542.463555,431.807271 546.161434,428.63022 550.953125,426.390625 C555.744816,424.15103 561.057262,423.03125 566.890625,423.03125 C587.619895,423.03125 597.984375,433.57802 597.984375,454.671875 L597.984375,511 Z M641.890625,511 L623.53125,511 L623.53125,389.4375 L641.890625,389.4375 L641.890625,511 Z M686.5,511 L668.140625,511 L668.140625,424.59375 L686.5,424.59375 L686.5,511 Z M667.046875,401.703125 C667.046875,398.421859 667.945304,395.895842 669.742188,394.125 C671.539071,392.354158 674.10415,391.46875 677.4375,391.46875 C680.666683,391.46875 683.179679,392.354158 684.976562,394.125 C686.773446,395.895842 687.671875,398.421859 687.671875,401.703125 C687.671875,404.828141 686.773446,407.289054 684.976562,409.085938 C683.179679,410.882821 680.666683,411.78125 677.4375,411.78125 C674.10415,411.78125 671.539071,410.882821 669.742188,409.085938 C667.945304,407.289054 667.046875,404.828141 667.046875,401.703125 L667.046875,401.703125 Z M788.765625,511 L770.328125,511 L770.328125,457.875 C770.328125,451.2083 768.986993,446.234391 766.304688,442.953125 C763.622382,439.671859 759.364613,438.03125 753.53125,438.03125 C745.770795,438.03125 740.093768,440.322894 736.5,444.90625 C732.906232,449.489606 731.109375,457.171821 731.109375,467.953125 L731.109375,511 L712.75,511 L712.75,424.59375 L727.125,424.59375 L729.703125,435.921875 L730.640625,435.921875 C733.244805,431.807271 736.942684,428.63022 741.734375,426.390625 C746.526066,424.15103 751.838512,423.03125 757.671875,423.03125 C778.401145,423.03125 788.765625,433.57802 788.765625,454.671875 L788.765625,511 Z M852.046875,512.5625 C838.609308,512.5625 828.1016,508.643268 820.523438,500.804688 C812.945275,492.966107 809.15625,482.171944 809.15625,468.421875 C809.15625,454.307221 812.67184,443.213582 819.703125,435.140625 C826.73441,427.067668 836.395772,423.03125 848.6875,423.03125 C860.093807,423.03125 869.104134,426.494757 875.71875,433.421875 C882.333366,440.348993 885.640625,449.880148 885.640625,462.015625 L885.640625,471.9375 L828.0625,471.9375 C828.322918,480.322959 830.58852,486.768207 834.859375,491.273438 C839.13023,495.778668 845.145795,498.03125 852.90625,498.03125 C858.010442,498.03125 862.762999,497.549484 867.164062,496.585938 C871.565126,495.622391 876.291641,494.020845 881.34375,491.78125 L881.34375,506.703125 C876.864561,508.838552 872.333356,510.348954 867.75,511.234375 C863.166644,512.119796 857.932321,512.5625 852.046875,512.5625 L852.046875,512.5625 Z M848.6875,436.9375 C842.854137,436.9375 838.179705,438.78644 834.664062,442.484375 C831.14842,446.18231 829.052087,451.572881 828.375,458.65625 L867.59375,458.65625 C867.489583,451.520798 865.77085,446.117206 862.4375,442.445312 C859.10415,438.773419 854.520863,436.9375 848.6875,436.9375 L848.6875,436.9375 Z" id="Try-Online" fill="#FFFFFF" sketch:type="MSShapeGroup" transform="translate(499.820312, 469.437500) rotate(-10.000000) translate(-499.820312, -469.437500) "></path>
        </g>
    </g>
</svg>