<?xml version="1.0" encoding="UTF-8" standalone="no"?>
<svg width="190px" height="190px" viewBox="0 0 190 190" version="1.1" xmlns="http://www.w3.org/2000/svg" xmlns:xlink="http://www.w3.org/1999/xlink" xmlns:sketch="http://www.bohemiancoding.com/sketch/ns">
    <!-- Generator: Sketch 3.3 (11970) - http://www.bohemiancoding.com/sketch -->
    <title>world</title>
    <desc>Created with Sketch.</desc>
    <defs></defs>
    <g id="Page-1" stroke="none" stroke-width="1" fill="none" fill-rule="evenodd" sketch:type="MSPage">
        <g id="world" sketch:type="MSLayerGroup">
            <g id="Layer_1" sketch:type="MSShapeGroup">
                <path d="M95,190 C147.467051,190 190,147.467051 190,95 C190,42.5329488 147.467051,0 95,0 C42.5329488,0 0,42.5329488 0,95 C0,147.467051 42.5329488,190 95,190 Z" id="Oval" fill="#17AE90"></path>
                <g id="Group" transform="translate(29.687500, 34.656250)" fill-opacity="0.3" fill="#231F20">
                    <g id="Shape">
                        <path d="M65.3125,0.7134375 C29.2421875,0.7134375 0,29.955625 0,66.0259375 C0,102.09625 29.2421875,131.338437 65.3125,131.338437 C101.382812,131.338437 130.625,102.09625 130.625,66.0259375 C130.625,29.955625 101.382812,0.7134375 65.3125,0.7134375 L65.3125,0.7134375 Z M12.0323438,38.73125 C12.6557813,41.236875 11.4089062,45.7375 10.4470312,52.2034375 C9.32484375,59.7440625 15.3365625,58.1142187 15.1346875,65.2451562 C14.9328125,72.3760937 20.4339062,75.3329687 19.7184375,76.0454687 C19.0059375,76.7579687 16.1529687,77.77625 20.4309375,87.050625 C24.7089062,96.3220312 28.3782812,99.0740625 28.8889062,104.064531 C29.3995312,109.057969 34.900625,116.39375 34.900625,116.39375 L35.2064062,117.765312 C17.4117187,107.371719 5.42390625,88.0778125 5.42390625,66.0259375 C5.42390625,56.1964062 7.8196875,46.9220312 12.0323438,38.73125 L12.0323438,38.73125 Z M41.6248438,119.142812 C41.3190625,117.81875 41.930625,110.684844 50.4895313,107.834844 C59.0484375,104.981875 57.6204688,101.211562 60.1676563,97.5451562 C62.7148438,93.87875 63.2254688,91.1267187 58.3329688,90.0045312 C53.4434375,88.8823437 48.3490625,88.0689062 43.9671875,81.1398437 C39.5853125,74.2107812 33.4726563,74.0089062 30.2129688,71.8684375 C26.9532813,69.7279687 24.3021875,70.1376562 20.33,69.6270312 C16.3578125,69.1164062 17.681875,58.0132812 17.88375,55.5670312 C18.0885938,53.1207812 15.4375,56.3834375 13.501875,54.6882812 C11.56625,52.993125 15.3365625,45.0725 19.106875,45.3782812 C22.8771875,45.6840625 21.9598437,47.51875 22.6723438,51.6957812 C23.3848437,55.8728125 24.7089062,54.8545312 25.0146875,53.5304687 C25.3204688,52.2064062 25.5253125,46.6014062 26.849375,44.870625 C28.1734375,43.1398437 28.4792188,38.4521875 32.7601563,38.6540625 C37.038125,38.8589062 36.9371875,34.7828125 40.0959375,36.106875 C43.2546875,37.4309375 45.4960938,36.4126562 43.4595312,34.681875 C41.4229687,32.9510937 42.5421875,31.2173437 46.0067187,32.3395312 C49.47125,33.4617187 49.673125,27.3460937 49.0645313,24.1873437 C48.4529688,21.0285937 45.9057813,20.11125 42.7470313,22.046875 C39.5882813,23.9825 37.2459375,23.1690625 38.8757813,19.9064062 C40.505625,16.6467187 46.9240625,19.3957812 50.7953125,21.0285937 C54.6665625,22.6584375 55.6848438,16.750625 53.5473438,13.8976562 C51.406875,11.0446875 51.3059375,12.36875 45.1932813,12.7754687 C42.7589063,12.93875 43.0082813,11.6295312 44.1898438,9.99671875 C50.7626562,7.50890625 57.8817188,6.13734375 65.3154688,6.13734375 C72.84125,6.13734375 80.0404688,7.54453125 86.6815625,10.0917187 C87.51875,11.2614062 87.8571875,12.1817187 87.2753125,12.570625 C84.8290625,14.2004687 82.6915625,12.7457812 83.4040625,17.2939062 C84.1165625,21.8420312 87.4801563,27.2451562 90.1282813,25.4609375 C92.7764063,23.6767187 97.363125,25.918125 93.3879688,28.364375 C89.4157813,30.810625 88.2935938,30.6057812 86.4589063,32.235625 C84.6242188,33.8654687 85.440625,33.0520312 87.2753125,35.0885937 C89.11,37.1251562 88.9051563,37.5348437 86.3579687,38.553125 C83.8107813,39.5714062 82.281875,41.8128125 84.728125,44.36 C87.174375,46.9071875 88.8042187,49.0476562 91.5532812,44.36 C94.3053125,39.6723437 94.8129688,35.5992187 97.1582813,36.819375 C99.500625,38.0425 102.151719,41.8128125 103.8825,39.6723437 C105.613281,37.531875 105.3075,36.106875 107.652813,37.7367187 C109.995156,39.3665625 118.657969,39.4675 112.848125,43.7484375 C107.04125,48.0264062 108.059531,49.8610937 105.3075,49.3534375 C102.555469,48.8428125 90.1253125,46.1946875 87.2723438,53.12375 C84.419375,60.0528125 74.0257812,65.5539062 79.4259375,72.278125 C84.8260938,79.0023437 83.6029688,83.891875 91.3454688,84.913125 C99.0879688,85.9314062 103.063125,82.466875 104.99875,86.0353125 C106.934375,89.60375 105.405469,90.0104687 105.509375,95.4076562 C105.559844,98.0854687 106.987813,103.129375 108.412813,107.546875 C97.5115625,118.857812 82.2254688,125.9175 65.3125,125.9175 C56.798125,125.9175 48.6964063,124.118437 41.3546875,120.900312 C41.574375,120.054219 41.6871875,119.412969 41.6248438,119.142812 L41.6248438,119.142812 Z"></path>
                    </g>
                    <g transform="translate(56.406250, 8.906250)" id="Shape">
                        <path d="M9.1615625,10.4895312 C11.0378125,9.36140625 11.198125,10.89625 12.8279687,5.7009375 C14.4578125,0.505625 6.7153125,-0.20984375 3.0459375,0.40171875 C-0.62046875,1.01328125 1.009375,2.5421875 1.009375,2.5421875 C2.2325,4.4778125 3.04,11.60875 0.85203125,14.2598437 C-1.33296875,16.9079687 2.63921875,17.4185937 4.37,14.9723437 C6.10671875,12.5260937 7.1309375,11.7096875 9.1615625,10.4895312 L9.1615625,10.4895312 Z"></path>
                    </g>
                </g>
                <g id="Group" transform="translate(29.687500, 29.687500)" fill="#FFFFFF">
                    <path d="M65.3125,0.25828125 C29.2421875,0.25828125 0,29.5004688 0,65.5707813 C0,101.641094 29.2421875,130.883281 65.3125,130.883281 C101.382812,130.883281 130.625,101.641094 130.625,65.5707813 C130.625,29.5004688 101.382812,0.25828125 65.3125,0.25828125 L65.3125,0.25828125 Z M12.0323438,38.2760938 C12.6557813,40.7817188 11.4089062,45.2823437 10.4470312,51.7482813 C9.32484375,59.2889062 15.3365625,57.6590625 15.1346875,64.79 C14.9328125,71.9209375 20.4339062,74.8778125 19.7184375,75.5903125 C19.0059375,76.3028125 16.1529687,77.3210938 20.4309375,86.5954688 C24.7089062,95.866875 28.3782812,98.6189063 28.8889062,103.609375 C29.3995312,108.602813 34.900625,115.938594 34.900625,115.938594 L35.2064062,117.310156 C17.4117187,106.916563 5.42390625,87.6226563 5.42390625,65.5707813 C5.42390625,55.74125 7.8196875,46.466875 12.0323438,38.2760938 L12.0323438,38.2760938 Z M41.6248438,118.687656 C41.3190625,117.363594 41.930625,110.229687 50.4895313,107.379688 C59.0484375,104.526719 57.6204688,100.756406 60.1676563,97.09 C62.7148438,93.4235938 63.2254688,90.6715625 58.3329688,89.549375 C53.4434375,88.4271875 48.3490625,87.61375 43.9671875,80.6846875 C39.5853125,73.755625 33.4726563,73.55375 30.2129688,71.4132813 C26.9532813,69.2728125 24.3021875,69.6825 20.33,69.171875 C16.3578125,68.66125 17.681875,57.558125 17.88375,55.111875 C18.0885938,52.665625 15.4375,55.9282813 13.501875,54.233125 C11.56625,52.5379688 15.3365625,44.6173438 19.106875,44.923125 C22.8771875,45.2289063 21.9598437,47.0635938 22.6723438,51.240625 C23.3848437,55.4176563 24.7089062,54.399375 25.0146875,53.0753125 C25.3204688,51.75125 25.5253125,46.14625 26.849375,44.4154688 C28.1734375,42.6846875 28.4792188,37.9970313 32.7601563,38.201875 C37.038125,38.4067188 36.9371875,34.330625 40.0959375,35.6546875 C43.2546875,36.97875 45.4960938,35.9604688 43.4595312,34.2296875 C41.4229687,32.4989063 42.5421875,30.7651563 46.0067187,31.8873438 C49.47125,33.0095313 49.673125,26.8939063 49.0645313,23.7351563 C48.4529688,20.5764063 45.9057813,19.6590625 42.7470313,21.5946875 C39.5882813,23.5303125 37.2459375,22.716875 38.8757813,19.4542188 C40.505625,16.1945313 46.9240625,18.9435938 50.7953125,20.5764063 C54.6665625,22.20625 55.6848438,16.2984375 53.5473438,13.4454688 C51.406875,10.5925 51.3059375,11.9165625 45.1932813,12.3232813 C42.7589063,12.4865625 43.0082813,11.1773438 44.1898438,9.54453125 C50.7626562,7.05671875 57.8817188,5.68515625 65.3154688,5.68515625 C72.84125,5.68515625 80.0404688,7.09234375 86.6815625,9.63953125 C87.51875,10.8092188 87.8571875,11.7295313 87.2753125,12.1184375 C84.8290625,13.7482813 82.6915625,12.2935938 83.4040625,16.8417188 C84.1165625,21.3898438 87.4801563,26.7929688 90.1282813,25.00875 C92.7764063,23.2245313 97.363125,25.4659375 93.3879688,27.9121875 C89.4157813,30.3584375 88.2935938,30.1535938 86.4589063,31.7834375 C84.6242188,33.4132813 85.440625,32.5998438 87.2753125,34.6364063 C89.11,36.6729688 88.9051563,37.0826563 86.3579687,38.1009375 C83.8107813,39.1192188 82.281875,41.360625 84.728125,43.9078125 C87.174375,46.455 88.8042187,48.5954688 91.5532812,43.9078125 C94.3053125,39.2201563 94.8129688,35.1470313 97.1582813,36.3671875 C99.500625,37.5903125 102.151719,41.360625 103.8825,39.2201563 C105.613281,37.0796875 105.3075,35.6546875 107.652813,37.2845313 C109.995156,38.914375 118.657969,39.0153125 112.848125,43.29625 C107.04125,47.5742188 108.059531,49.4089063 105.3075,48.90125 C102.555469,48.390625 90.1253125,45.7425 87.2723438,52.6715625 C84.419375,59.600625 74.0257812,65.1017188 79.4259375,71.8259375 C84.8260938,78.5501563 83.6029688,83.4396875 91.3454688,84.4609375 C99.0879688,85.4792188 103.063125,82.0146875 104.99875,85.583125 C106.934375,89.1485938 105.405469,89.5582813 105.509375,94.9554688 C105.559844,97.6332812 106.987813,102.677187 108.412813,107.094687 C97.5115625,118.405625 82.2254688,125.465312 65.3125,125.465312 C56.798125,125.465312 48.6964063,123.66625 41.3546875,120.448125 C41.574375,119.599063 41.6871875,118.957813 41.6248438,118.687656 L41.6248438,118.687656 Z" id="Shape"></path>
                    <path d="M65.5678125,18.940625 C67.4440625,17.8125 67.604375,19.3473438 69.2342187,14.1520313 C70.8640625,8.95671875 63.1215625,8.24125 59.4521875,8.8528125 C55.7857812,9.464375 57.415625,10.9932813 57.415625,10.9932813 C58.63875,12.9289063 59.44625,20.0598437 57.2582812,22.7109375 C55.0732812,25.3590625 59.0454687,25.8696875 60.77625,23.4234375 C62.5070312,20.9771875 63.5371875,20.1607813 65.5678125,18.940625 L65.5678125,18.940625 Z" id="Shape"></path>
                </g>
            </g>
            <g id="Layer_2"></g>
        </g>
    </g>
</svg>