<?xml version="1.0" encoding="UTF-8" standalone="no"?>
<svg width="2646px" height="346px" viewBox="0 0 2646 346" version="1.1" xmlns="http://www.w3.org/2000/svg" xmlns:xlink="http://www.w3.org/1999/xlink" xmlns:sketch="http://www.bohemiancoding.com/sketch/ns">
    <!-- Generator: Sketch 3.3 (11970) - http://www.bohemiancoding.com/sketch -->
    <title>field3 copy</title>
    <desc>Created with Sketch.</desc>
    <defs></defs>
    <g id="Page-1" stroke="none" stroke-width="1" fill="none" fill-rule="evenodd" sketch:type="MSPage">
        <g id="field3-copy" sketch:type="MSLayerGroup" transform="translate(0.500000, 0.500000)">
            <rect id="Rectangle-1" stroke-opacity="0.95" stroke="#9881C1" fill-opacity="0.990234375" fill="#9881C1" sketch:type="MSShapeGroup" x="0" y="0" width="2645" height="345"></rect>
            <g id="shopping-cart" transform="translate(243.000000, 60.000000)" fill-opacity="0.345193614" fill="#000000" sketch:type="MSShapeGroup">
                <path d="M67.5,180 C55.125,180 45,190.125 45,202.5 C45,214.875 55.125,225 67.5,225 C79.875,225 90,214.875 90,202.5 C90,190.125 79.875,180 67.5,180 L67.5,180 L67.5,180 Z M0,0 L0,22.5 L22.5,22.5 L63,108 L47.25,135 C46.125,138.375 45,142.875 45,146.25 C45,158.625 55.125,168.75 67.5,168.75 L202.5,168.75 L202.5,146.25 L72,146.25 C70.875,146.25 69.75,145.125 69.75,144 L69.75,142.875 L79.875,123.75 L163.125,123.75 C172.125,123.75 178.875,119.25 182.25,112.5 L222.75,39.375 C225,37.125 225,36 225,33.75 C225,27 220.5,22.5 213.75,22.5 L47.25,22.5 L37.125,0 L0,0 L0,0 Z M180,180 C167.625,180 157.5,190.125 157.5,202.5 C157.5,214.875 167.625,225 180,225 C192.375,225 202.5,214.875 202.5,202.5 C202.5,190.125 192.375,180 180,180 L180,180 L180,180 Z" id="Shape"></path>
            </g>
            <path d="M2372.10059,134.758789 C2372.10059,145.090872 2369.55504,153.756964 2364.46387,160.757324 C2359.3727,167.757685 2352.18527,172.605455 2342.90137,175.300781 L2342.90137,176.199219 C2353.23345,177.846362 2361.22572,181.889291 2366.87842,188.328125 C2372.53112,194.766959 2375.35742,203.526637 2375.35742,214.607422 C2375.35742,229.731195 2370.65939,241.785111 2361.26318,250.769531 C2351.86698,259.753951 2339.00822,264.246094 2322.68652,264.246094 C2308.16171,264.246094 2295.95806,261.663112 2286.0752,256.49707 L2286.0752,229.094727 C2291.01663,232.089533 2296.36976,234.447908 2302.13477,236.169922 C2307.89977,237.891936 2313.44008,238.75293 2318.75586,238.75293 C2327.4408,238.75293 2333.99184,236.750183 2338.40918,232.744629 C2342.82652,228.739075 2345.03516,222.393924 2345.03516,213.708984 C2345.03516,197.312418 2334.96527,189.114258 2314.8252,189.114258 L2305.50391,189.114258 L2305.50391,166.316406 L2314.37598,166.316406 C2323.28553,166.316406 2330.11733,164.220073 2334.87158,160.027344 C2339.62584,155.834614 2342.00293,149.583049 2342.00293,141.272461 C2342.00293,134.758756 2340.48683,129.836117 2337.45459,126.504395 C2334.42235,123.172672 2330.1361,121.506836 2324.5957,121.506836 C2316.13537,121.506836 2307.89978,125.10055 2299.88867,132.288086 L2286.0752,112.073242 C2297.15598,100.992458 2311.11906,95.4521484 2327.96484,95.4521484 C2341.81582,95.4521484 2352.6344,98.9522762 2360.4209,105.952637 C2368.2074,112.952997 2372.10059,122.554952 2372.10059,134.758789 L2372.10059,134.758789 Z" id="3" stroke="#979797" opacity="0.35" fill="#000000" sketch:type="MSShapeGroup"></path>
        </g>
    </g>
</svg>