<?xml version="1.0" encoding="UTF-8" standalone="no"?>
<svg width="2646px" height="346px" viewBox="0 0 2646 346" version="1.1" xmlns="http://www.w3.org/2000/svg" xmlns:xlink="http://www.w3.org/1999/xlink" xmlns:sketch="http://www.bohemiancoding.com/sketch/ns">
    <!-- Generator: Sketch 3.3 (11970) - http://www.bohemiancoding.com/sketch -->
    <title>field9 copy</title>
    <desc>Created with Sketch.</desc>
    <defs></defs>
    <g id="Page-1" stroke="none" stroke-width="1" fill="none" fill-rule="evenodd" sketch:type="MSPage">
        <g id="field9-copy" sketch:type="MSLayerGroup" transform="translate(0.500000, 0.500000)">
            <rect id="Rectangle-1" stroke="#15AF97" fill="#15AF97" sketch:type="MSShapeGroup" x="0" y="0" width="2645" height="345"></rect>
            <path d="M464.796969,246.533901 L372.548785,85.0996828 C370.150424,80.9026036 365.687094,78.3125 360.853118,78.3125 C356.019141,78.3125 351.555812,80.9026036 349.157661,85.0996828 L256.909476,246.533901 C254.527111,250.703197 254.54416,255.825103 256.954308,259.978193 C259.364455,264.131283 263.802949,266.6875 268.604933,266.6875 L453.101302,266.6875 C457.903076,266.6875 462.34178,264.131283 464.751928,259.978193 C467.162075,255.825103 467.179334,250.703197 464.796969,246.533901 L464.796969,246.533901 Z M374.323509,239.746718 L347.382727,239.746718 L347.382727,212.805936 L374.323509,212.805936 L374.323509,239.746718 L374.323509,239.746718 Z M374.323509,199.335545 L347.382727,199.335545 L347.382727,145.45398 L374.323509,145.45398 L374.323509,199.335545 L374.323509,199.335545 Z" id="Shape" fill-opacity="0.345193614" fill="#000000" sketch:type="MSShapeGroup"></path>
            <path d="M2376.48047,169.348633 C2376.48047,232.613923 2355.32996,264.246094 2313.02832,264.246094 C2305.99052,264.246094 2300.15074,263.647141 2295.50879,262.449219 L2295.50879,236.731445 C2300.59996,238.378589 2305.35414,239.202148 2309.77148,239.202148 C2322.2748,239.202148 2331.76445,234.859744 2338.24072,226.174805 C2344.71699,217.489865 2348.29199,203.826265 2348.96582,185.183594 L2347.95508,185.183594 C2345.55923,191.098337 2342.13397,195.7215 2337.6792,199.053223 C2333.22442,202.384945 2327.92744,204.050781 2321.78809,204.050781 C2310.63243,204.050781 2301.98506,199.48377 2295.8457,190.349609 C2289.70635,181.215449 2286.63672,168.674884 2286.63672,152.727539 C2286.63672,135.20792 2290.66093,121.319713 2298.70947,111.0625 C2306.75802,100.805287 2317.52044,95.6767578 2330.99707,95.6767578 C2345.67162,95.6767578 2356.9207,102.003192 2364.74463,114.65625 C2372.56856,127.309308 2376.48047,145.53992 2376.48047,169.348633 L2376.48047,169.348633 Z M2331.22168,121.731445 C2326.72947,121.731445 2323.15447,124.164689 2320.49658,129.03125 C2317.83869,133.897811 2316.50977,141.571888 2316.50977,152.053711 C2316.50977,160.66378 2317.67024,167.383277 2319.99121,172.212402 C2322.31219,177.041528 2325.83103,179.456055 2330.54785,179.456055 C2334.81545,179.456055 2338.52147,177.004094 2341.66602,172.100098 C2344.81056,167.196102 2346.38281,161.599641 2346.38281,155.310547 C2346.38281,145.577425 2344.99774,137.54772 2342.22754,131.221191 C2339.45734,124.894662 2335.78876,121.731445 2331.22168,121.731445 L2331.22168,121.731445 Z" id="9" stroke="#979797" opacity="0.35" fill="#000000" sketch:type="MSShapeGroup"></path>
        </g>
    </g>
</svg>