<?xml version="1.0" encoding="UTF-8" standalone="no"?>
<svg width="7767px" height="346px" viewBox="0 0 7767 346" version="1.1" xmlns="http://www.w3.org/2000/svg" xmlns:xlink="http://www.w3.org/1999/xlink" xmlns:sketch="http://www.bohemiancoding.com/sketch/ns">
    <!-- Generator: Sketch 3.3 (11970) - http://www.bohemiancoding.com/sketch -->
    <title>field12-pdf</title>
    <desc>Created with Sketch.</desc>
    <defs></defs>
    <g id="Page-1" stroke="none" stroke-width="1" fill="none" fill-rule="evenodd" sketch:type="MSPage">
        <g id="field12-pdf" sketch:type="MSLayerGroup" transform="translate(0.500000, 0.500000)">
            <rect id="Rectangle-1" stroke="#607D8B" fill="#607D8B" sketch:type="MSShapeGroup" x="0" y="0" width="7766" height="345"></rect>
            <path d="M405.681133,86.1925962 C416.108187,85.8859182 424.388494,77.605611 424.695172,67.1785574 C425.00185,55.8314698 415.801509,46.6311285 404.454421,46.9378065 C394.027367,47.2444846 385.74706,55.5247918 385.440382,65.9518453 C385.133704,77.2989329 394.334045,86.4992742 405.681133,86.1925962 L405.681133,86.1925962 Z M547.979746,203.956965 L542.459541,203.956965 L503.511429,128.514166 C509.031634,127.90081 514.551839,125.754064 519.458688,123.607318 C526.818961,120.233859 528.352351,110.420162 522.832146,104.593279 L522.525468,104.286601 C519.15201,100.913142 513.938483,99.6864302 509.338312,101.833176 C505.044819,103.673245 498.911259,105.819991 493.084376,105.819991 C475.910405,105.819991 468.243454,86.1925962 405.067777,86.1925962 C341.8921,86.1925962 334.225149,105.819991 317.051178,105.819991 C310.917617,105.819991 305.090734,103.979923 300.797242,101.833176 C296.197071,99.9931082 290.983544,100.913142 287.610086,104.286601 L287.303408,104.593279 C281.783203,110.420162 283.316593,119.927181 290.676866,123.607318 C295.583715,126.060742 301.10392,127.90081 306.624125,128.514166 L267.676013,203.956965 L262.155808,203.956965 C259.702384,203.956965 257.862316,206.103712 258.168994,208.557136 C261.542452,228.184531 286.383374,243.211755 316.7445,243.211755 C347.105627,243.211755 371.946548,228.184531 375.320007,208.557136 C375.626685,206.103712 373.786616,203.956965 371.333192,203.956965 L365.812987,203.956965 L326.864876,128.820844 C352.319153,126.674098 365.812987,113.79362 385.440382,113.79362 L385.440382,262.83915 C374.706651,262.83915 365.812987,271.732813 365.812987,282.466545 L344.038846,282.466545 C335.451861,282.466545 326.558198,291.360208 326.558198,302.09394 L483.577356,302.09394 C483.577356,291.360208 474.683693,282.466545 461.803215,282.466545 L444.322567,282.466545 C444.322567,271.732813 435.428903,262.83915 424.695172,262.83915 L424.695172,113.79362 C444.322567,113.79362 457.816401,126.674098 483.270678,128.820844 L444.322567,203.956965 L438.802362,203.956965 C436.348938,203.956965 434.508869,206.103712 434.815547,208.557136 C438.189006,228.184531 463.029927,243.211755 493.391054,243.211755 C523.75218,243.211755 548.593102,228.184531 551.96656,208.557136 C552.273238,206.103712 550.43317,203.956965 547.979746,203.956965 L547.979746,203.956965 Z M346.185592,203.956965 L287.303408,203.956965 L316.7445,148.754917 L346.185592,203.956965 L346.185592,203.956965 Z M463.949962,203.956965 L493.391054,148.754917 L522.832146,203.956965 L463.949962,203.956965 L463.949962,203.956965 Z" id="Shape" fill="#FFFFFF" sketch:type="MSShapeGroup"></path>
            <path d="M7388.87012,246 L7358.77246,246 L7358.77246,149.642578 C7358.77246,139.160755 7359.29654,127.106839 7360.34473,113.480469 C7359.82064,114.22917 7357.89276,116.512676 7354.56104,120.331055 C7351.22931,124.149433 7344.73442,130.999951 7335.07617,140.882812 L7318.00586,122.240234 L7361.69238,81.8105469 L7388.87012,81.8105469 L7388.87012,246 Z M7509.82227,246 L7421.77539,246 L7421.77539,223.202148 L7450.97461,181.874023 C7458.98572,170.493758 7464.48859,162.052274 7467.4834,156.549316 C7470.47821,151.046359 7472.68684,145.768092 7474.10938,140.714355 C7475.53191,135.660619 7476.24316,130.438504 7476.24316,125.047852 C7476.24316,118.758758 7474.83937,114.042008 7472.03174,110.897461 C7469.22411,107.752914 7465.57424,106.180664 7461.08203,106.180664 C7457.11391,106.180664 7453.40789,107.228831 7449.96387,109.325195 C7446.51984,111.42156 7442.32717,115.202447 7437.38574,120.667969 L7420.31543,102.699219 C7428.1768,93.789669 7435.47653,87.687842 7442.21484,84.3935547 C7448.95316,81.0992674 7456.25289,79.4521484 7464.11426,79.4521484 C7477.36628,79.4521484 7487.71692,83.3453387 7495.1665,91.1318359 C7502.61609,98.9183332 7506.34082,109.73691 7506.34082,123.587891 C7506.34082,129.876985 7505.667,135.829073 7504.31934,141.444336 C7502.97167,147.059598 7500.93149,152.693494 7498.19873,158.346191 C7495.46597,163.998889 7492.04071,169.876109 7487.92285,175.978027 C7483.80499,182.079946 7473.17359,196.06174 7456.02832,217.923828 L7456.02832,218.822266 L7509.82227,218.822266 L7509.82227,246 Z" id="12" fill="#FFFFFF" sketch:type="MSShapeGroup"></path>
        </g>
    </g>
</svg>